<svg width="1440" height="831" viewBox="0 0 1440 831" fill="none" xmlns="http://www.w3.org/2000/svg">
<rect width="1440" height="831" fill="white"/>
<path d="M1112.37 551.733C1116.43 551.733 1119.73 548.435 1119.73 544.366C1119.73 540.298 1116.43 537 1112.37 537C1108.3 537 1105 540.298 1105 544.366C1105 548.435 1108.3 551.733 1112.37 551.733Z" fill="#8A4742" fill-opacity="0.5"/>
<path d="M1112.37 581.092C1116.43 581.092 1119.73 577.794 1119.73 573.725C1119.73 569.657 1116.43 566.359 1112.37 566.359C1108.3 566.359 1105 569.657 1105 573.725C1105 577.794 1108.3 581.092 1112.37 581.092Z" fill="#8A4742" fill-opacity="0.5"/>
<path d="M1143.12 551.733C1147.19 551.733 1150.49 548.435 1150.49 544.366C1150.49 540.298 1147.19 537 1143.12 537C1139.05 537 1135.76 540.298 1135.76 544.366C1135.76 548.435 1139.05 551.733 1143.12 551.733Z" fill="#8A4742" fill-opacity="0.5"/>
<path d="M1143.12 581.092C1147.19 581.092 1150.49 577.794 1150.49 573.725C1150.49 569.657 1147.19 566.359 1143.12 566.359C1139.05 566.359 1135.76 569.657 1135.76 573.725C1135.76 577.794 1139.05 581.092 1143.12 581.092Z" fill="#8A4742" fill-opacity="0.5"/>
<path d="M1173.88 551.733C1177.95 551.733 1181.24 548.435 1181.24 544.366C1181.24 540.298 1177.95 537 1173.88 537C1169.81 537 1166.51 540.298 1166.51 544.366C1166.51 548.435 1169.81 551.733 1173.88 551.733Z" fill="#8A4742" fill-opacity="0.5"/>
<path d="M1173.88 581.092C1177.95 581.092 1181.24 577.794 1181.24 573.725C1181.24 569.657 1177.95 566.359 1173.88 566.359C1169.81 566.359 1166.51 569.657 1166.51 573.725C1166.51 577.794 1169.81 581.092 1173.88 581.092Z" fill="#8A4742" fill-opacity="0.5"/>
<path d="M1204.63 551.733C1208.7 551.733 1212 548.435 1212 544.366C1212 540.298 1208.7 537 1204.63 537C1200.56 537 1197.27 540.298 1197.27 544.366C1197.27 548.435 1200.56 551.733 1204.63 551.733Z" fill="#8A4742" fill-opacity="0.5"/>
<path d="M1204.63 581.092C1208.7 581.092 1212 577.794 1212 573.725C1212 569.657 1208.7 566.359 1204.63 566.359C1200.56 566.359 1197.27 569.657 1197.27 573.725C1197.27 577.794 1200.56 581.092 1204.63 581.092Z" fill="#8A4742" fill-opacity="0.5"/>
<path d="M1112.37 610.966C1116.43 610.966 1119.73 607.668 1119.73 603.599C1119.73 599.531 1116.43 596.233 1112.37 596.233C1108.3 596.233 1105 599.531 1105 603.599C1105 607.668 1108.3 610.966 1112.37 610.966Z" fill="#8A4742" fill-opacity="0.5"/>
<path d="M1112.37 640.325C1116.43 640.325 1119.73 637.027 1119.73 632.958C1119.73 628.89 1116.43 625.592 1112.37 625.592C1108.3 625.592 1105 628.89 1105 632.958C1105 637.027 1108.3 640.325 1112.37 640.325Z" fill="#8A4742" fill-opacity="0.5"/>
<path d="M1143.12 610.966C1147.19 610.966 1150.49 607.668 1150.49 603.599C1150.49 599.531 1147.19 596.233 1143.12 596.233C1139.05 596.233 1135.76 599.531 1135.76 603.599C1135.76 607.668 1139.05 610.966 1143.12 610.966Z" fill="#8A4742" fill-opacity="0.5"/>
<path d="M1143.12 640.325C1147.19 640.325 1150.49 637.027 1150.49 632.958C1150.49 628.89 1147.19 625.592 1143.12 625.592C1139.05 625.592 1135.76 628.89 1135.76 632.958C1135.76 637.027 1139.05 640.325 1143.12 640.325Z" fill="#8A4742" fill-opacity="0.5"/>
<path d="M1173.88 610.966C1177.95 610.966 1181.24 607.668 1181.24 603.599C1181.24 599.531 1177.95 596.233 1173.88 596.233C1169.81 596.233 1166.51 599.531 1166.51 603.599C1166.51 607.668 1169.81 610.966 1173.88 610.966Z" fill="#8A4742" fill-opacity="0.5"/>
<path d="M1173.88 640.325C1177.95 640.325 1181.24 637.027 1181.24 632.958C1181.24 628.89 1177.95 625.592 1173.88 625.592C1169.81 625.592 1166.51 628.89 1166.51 632.958C1166.51 637.027 1169.81 640.325 1173.88 640.325Z" fill="#8A4742" fill-opacity="0.5"/>
<path d="M1204.63 610.966C1208.7 610.966 1212 607.668 1212 603.599C1212 599.531 1208.7 596.233 1204.63 596.233C1200.56 596.233 1197.27 599.531 1197.27 603.599C1197.27 607.668 1200.56 610.966 1204.63 610.966Z" fill="#8A4742" fill-opacity="0.5"/>
<path d="M1204.63 640.325C1208.7 640.325 1212 637.027 1212 632.958C1212 628.89 1208.7 625.592 1204.63 625.592C1200.56 625.592 1197.27 628.89 1197.27 632.958C1197.27 637.027 1200.56 640.325 1204.63 640.325Z" fill="#8A4742" fill-opacity="0.5"/>
<path d="M235.366 204.733C239.435 204.733 242.733 201.435 242.733 197.366C242.733 193.298 239.435 190 235.366 190C231.298 190 228 193.298 228 197.366C228 201.435 231.298 204.733 235.366 204.733Z" fill="#8A4742" fill-opacity="0.5"/>
<path d="M235.366 234.092C239.435 234.092 242.733 230.794 242.733 226.725C242.733 222.657 239.435 219.359 235.366 219.359C231.298 219.359 228 222.657 228 226.725C228 230.794 231.298 234.092 235.366 234.092Z" fill="#8A4742" fill-opacity="0.5"/>
<path d="M266.123 204.733C270.192 204.733 273.49 201.435 273.49 197.366C273.49 193.298 270.192 190 266.123 190C262.055 190 258.757 193.298 258.757 197.366C258.757 201.435 262.055 204.733 266.123 204.733Z" fill="#8A4742" fill-opacity="0.5"/>
<path d="M266.123 234.092C270.192 234.092 273.49 230.794 273.49 226.725C273.49 222.657 270.192 219.359 266.123 219.359C262.055 219.359 258.757 222.657 258.757 226.725C258.757 230.794 262.055 234.092 266.123 234.092Z" fill="#8A4742" fill-opacity="0.5"/>
<path d="M296.878 204.733C300.946 204.733 304.244 201.435 304.244 197.366C304.244 193.298 300.946 190 296.878 190C292.809 190 289.511 193.298 289.511 197.366C289.511 201.435 292.809 204.733 296.878 204.733Z" fill="#8A4742" fill-opacity="0.5"/>
<path d="M296.878 234.092C300.946 234.092 304.244 230.794 304.244 226.725C304.244 222.657 300.946 219.359 296.878 219.359C292.809 219.359 289.511 222.657 289.511 226.725C289.511 230.794 292.809 234.092 296.878 234.092Z" fill="#8A4742" fill-opacity="0.5"/>
<path d="M327.633 204.733C331.701 204.733 334.999 201.435 334.999 197.366C334.999 193.298 331.701 190 327.633 190C323.565 190 320.267 193.298 320.267 197.366C320.267 201.435 323.565 204.733 327.633 204.733Z" fill="#8A4742" fill-opacity="0.5"/>
<path d="M327.633 234.092C331.701 234.092 334.999 230.794 334.999 226.725C334.999 222.657 331.701 219.359 327.633 219.359C323.565 219.359 320.267 222.657 320.267 226.725C320.267 230.794 323.565 234.092 327.633 234.092Z" fill="#8A4742" fill-opacity="0.5"/>
<path d="M235.366 263.966C239.435 263.966 242.733 260.668 242.733 256.599C242.733 252.531 239.435 249.233 235.366 249.233C231.298 249.233 228 252.531 228 256.599C228 260.668 231.298 263.966 235.366 263.966Z" fill="#8A4742" fill-opacity="0.5"/>
<path d="M235.366 293.325C239.435 293.325 242.733 290.027 242.733 285.958C242.733 281.89 239.435 278.592 235.366 278.592C231.298 278.592 228 281.89 228 285.958C228 290.027 231.298 293.325 235.366 293.325Z" fill="#8A4742" fill-opacity="0.5"/>
<path d="M266.123 263.966C270.192 263.966 273.49 260.668 273.49 256.599C273.49 252.531 270.192 249.233 266.123 249.233C262.055 249.233 258.757 252.531 258.757 256.599C258.757 260.668 262.055 263.966 266.123 263.966Z" fill="#8A4742" fill-opacity="0.5"/>
<path d="M266.123 293.325C270.192 293.325 273.49 290.027 273.49 285.958C273.49 281.89 270.192 278.592 266.123 278.592C262.055 278.592 258.757 281.89 258.757 285.958C258.757 290.027 262.055 293.325 266.123 293.325Z" fill="#8A4742" fill-opacity="0.5"/>
<path d="M296.878 263.966C300.946 263.966 304.244 260.668 304.244 256.599C304.244 252.531 300.946 249.233 296.878 249.233C292.809 249.233 289.511 252.531 289.511 256.599C289.511 260.668 292.809 263.966 296.878 263.966Z" fill="#8A4742" fill-opacity="0.5"/>
<path d="M296.878 293.325C300.946 293.325 304.244 290.027 304.244 285.958C304.244 281.89 300.946 278.592 296.878 278.592C292.809 278.592 289.511 281.89 289.511 285.958C289.511 290.027 292.809 293.325 296.878 293.325Z" fill="#8A4742" fill-opacity="0.5"/>
<path d="M327.633 263.966C331.701 263.966 334.999 260.668 334.999 256.599C334.999 252.531 331.701 249.233 327.633 249.233C323.565 249.233 320.267 252.531 320.267 256.599C320.267 260.668 323.565 263.966 327.633 263.966Z" fill="#8A4742" fill-opacity="0.5"/>
<path d="M327.633 293.325C331.701 293.325 334.999 290.027 334.999 285.958C334.999 281.89 331.701 278.592 327.633 278.592C323.565 278.592 320.267 281.89 320.267 285.958C320.267 290.027 323.565 293.325 327.633 293.325Z" fill="#8A4742" fill-opacity="0.5"/>
</svg>
