<svg width="375" height="55" viewBox="0 0 375 55" fill="none" xmlns="http://www.w3.org/2000/svg">
<path d="M51 13H335" stroke="black" stroke-width="2"/>
<path d="M1.35241 50V40.2H4.57241C5.33774 40.2 5.96774 40.326 6.46241 40.578C6.95707 40.83 7.32107 41.1707 7.55441 41.6C7.79707 42.0293 7.91841 42.5147 7.91841 43.056C7.91841 43.588 7.80174 44.0687 7.56841 44.498C7.33507 44.9273 6.97107 45.2727 6.47641 45.534C5.98174 45.786 5.34707 45.912 4.57241 45.912H2.52841V50H1.35241ZM2.52841 44.918H4.54441C5.32841 44.918 5.88374 44.7547 6.21041 44.428C6.54641 44.092 6.71441 43.6347 6.71441 43.056C6.71441 42.468 6.54641 42.0107 6.21041 41.684C5.88374 41.348 5.32841 41.18 4.54441 41.18H2.52841V44.918ZM12.1017 50.168C11.439 50.168 10.851 50.0187 10.3377 49.72C9.82434 49.412 9.41834 48.9873 9.11967 48.446C8.83034 47.9047 8.68567 47.2653 8.68567 46.528C8.68567 45.8 8.83034 45.1653 9.11967 44.624C9.40901 44.0733 9.81034 43.6487 10.3237 43.35C10.8463 43.042 11.4483 42.888 12.1297 42.888C12.8017 42.888 13.3803 43.042 13.8657 43.35C14.3603 43.6487 14.7383 44.0453 14.9997 44.54C15.261 45.0347 15.3917 45.5667 15.3917 46.136C15.3917 46.2387 15.387 46.3413 15.3777 46.444C15.3777 46.5467 15.3777 46.6633 15.3777 46.794H9.84767C9.87567 47.326 9.99701 47.7693 10.2117 48.124C10.4357 48.4693 10.711 48.7307 11.0377 48.908C11.3737 49.0853 11.7283 49.174 12.1017 49.174C12.587 49.174 12.993 49.062 13.3197 48.838C13.6463 48.614 13.8843 48.3107 14.0337 47.928H15.1957C15.009 48.572 14.6497 49.1087 14.1177 49.538C13.595 49.958 12.923 50.168 12.1017 50.168ZM12.1017 43.882C11.5417 43.882 11.0423 44.0547 10.6037 44.4C10.1743 44.736 9.92701 45.2307 9.86167 45.884H14.2297C14.2017 45.2587 13.987 44.7687 13.5857 44.414C13.1843 44.0593 12.6897 43.882 12.1017 43.882ZM16.9504 50V43.056H18.0144L18.0844 44.302C18.3084 43.8633 18.6304 43.518 19.0504 43.266C19.4704 43.014 19.9464 42.888 20.4784 42.888C21.2997 42.888 21.953 43.14 22.4384 43.644C22.933 44.1387 23.1804 44.904 23.1804 45.94V50H22.0044V46.066C22.0044 44.6193 21.407 43.896 20.2124 43.896C19.615 43.896 19.1157 44.1153 18.7144 44.554C18.3224 44.9833 18.1264 45.5993 18.1264 46.402V50H16.9504ZM28.1121 50.168C27.4214 50.168 26.8148 50.0093 26.2921 49.692C25.7788 49.3747 25.3774 48.9407 25.0881 48.39C24.8081 47.8393 24.6681 47.214 24.6681 46.514C24.6681 45.814 24.8128 45.1933 25.1021 44.652C25.3914 44.1013 25.7928 43.672 26.3061 43.364C26.8194 43.0467 27.4261 42.888 28.1261 42.888C28.6954 42.888 29.1994 43.0047 29.6381 43.238C30.0768 43.4713 30.4174 43.798 30.6601 44.218V39.92H31.8361V50H30.7721L30.6601 48.852C30.4361 49.188 30.1141 49.4913 29.6941 49.762C29.2741 50.0327 28.7468 50.168 28.1121 50.168ZM28.2381 49.146C28.7048 49.146 29.1154 49.0387 29.4701 48.824C29.8341 48.6 30.1141 48.292 30.3101 47.9C30.5154 47.508 30.6181 47.0507 30.6181 46.528C30.6181 46.0053 30.5154 45.548 30.3101 45.156C30.1141 44.764 29.8341 44.4607 29.4701 44.246C29.1154 44.022 28.7048 43.91 28.2381 43.91C27.7808 43.91 27.3701 44.022 27.0061 44.246C26.6514 44.4607 26.3714 44.764 26.1661 45.156C25.9701 45.548 25.8721 46.0053 25.8721 46.528C25.8721 47.0507 25.9701 47.508 26.1661 47.9C26.3714 48.292 26.6514 48.6 27.0061 48.824C27.3701 49.0387 27.7808 49.146 28.2381 49.146ZM36.0631 50.168C35.4844 50.168 35.0038 50.07 34.6211 49.874C34.2384 49.678 33.9538 49.4167 33.7671 49.09C33.5804 48.7633 33.4871 48.4087 33.4871 48.026C33.4871 47.3167 33.7578 46.7707 34.2991 46.388C34.8404 46.0053 35.5778 45.814 36.5111 45.814H38.3871V45.73C38.3871 45.1233 38.2284 44.666 37.9111 44.358C37.5938 44.0407 37.1691 43.882 36.6371 43.882C36.1798 43.882 35.7831 43.9987 35.4471 44.232C35.1204 44.456 34.9151 44.7873 34.8311 45.226H33.6271C33.6738 44.722 33.8418 44.2973 34.1311 43.952C34.4298 43.6067 34.7984 43.3453 35.2371 43.168C35.6758 42.9813 36.1424 42.888 36.6371 42.888C37.6078 42.888 38.3358 43.1493 38.8211 43.672C39.3158 44.1853 39.5631 44.8713 39.5631 45.73V50H38.5131L38.4431 48.754C38.2471 49.146 37.9578 49.482 37.5751 49.762C37.2018 50.0327 36.6978 50.168 36.0631 50.168ZM36.2451 49.174C36.6931 49.174 37.0758 49.0573 37.3931 48.824C37.7198 48.5907 37.9671 48.2873 38.1351 47.914C38.3031 47.5407 38.3871 47.1487 38.3871 46.738V46.724H36.6091C35.9184 46.724 35.4284 46.8453 35.1391 47.088C34.8591 47.3213 34.7191 47.6153 34.7191 47.97C34.7191 48.334 34.8498 48.628 35.1111 48.852C35.3818 49.0667 35.7598 49.174 36.2451 49.174ZM41.7053 50V44.05H40.6553V43.056H41.7053V41.852C41.7053 41.18 41.8733 40.69 42.2093 40.382C42.5453 40.074 43.0353 39.92 43.6793 39.92H44.3793V40.928H43.8613C43.5067 40.928 43.2547 41.0027 43.1053 41.152C42.956 41.292 42.8813 41.5347 42.8813 41.88V43.056H44.5893V44.05H42.8813V50H41.7053ZM48.7334 50C48.0988 50 47.5994 49.846 47.2354 49.538C46.8714 49.23 46.6894 48.6747 46.6894 47.872V44.05H45.4854V43.056H46.6894L46.8434 41.39H47.8654V43.056H49.9094V44.05H47.8654V47.872C47.8654 48.3107 47.9541 48.6093 48.1314 48.768C48.3088 48.9173 48.6214 48.992 49.0694 48.992H49.7974V50H48.7334ZM53.7135 50.168C53.1348 50.168 52.6542 50.07 52.2715 49.874C51.8888 49.678 51.6042 49.4167 51.4175 49.09C51.2308 48.7633 51.1375 48.4087 51.1375 48.026C51.1375 47.3167 51.4082 46.7707 51.9495 46.388C52.4908 46.0053 53.2282 45.814 54.1615 45.814H56.0375V45.73C56.0375 45.1233 55.8788 44.666 55.5615 44.358C55.2442 44.0407 54.8195 43.882 54.2875 43.882C53.8302 43.882 53.4335 43.9987 53.0975 44.232C52.7708 44.456 52.5655 44.7873 52.4815 45.226H51.2775C51.3242 44.722 51.4922 44.2973 51.7815 43.952C52.0802 43.6067 52.4488 43.3453 52.8875 43.168C53.3262 42.9813 53.7928 42.888 54.2875 42.888C55.2582 42.888 55.9862 43.1493 56.4715 43.672C56.9662 44.1853 57.2135 44.8713 57.2135 45.73V50H56.1635L56.0935 48.754C55.8975 49.146 55.6082 49.482 55.2255 49.762C54.8522 50.0327 54.3482 50.168 53.7135 50.168ZM53.8955 49.174C54.3435 49.174 54.7262 49.0573 55.0435 48.824C55.3702 48.5907 55.6175 48.2873 55.7855 47.914C55.9535 47.5407 56.0375 47.1487 56.0375 46.738V46.724H54.2595C53.5688 46.724 53.0788 46.8453 52.7895 47.088C52.5095 47.3213 52.3695 47.6153 52.3695 47.97C52.3695 48.334 52.5002 48.628 52.7615 48.852C53.0322 49.0667 53.4102 49.174 53.8955 49.174ZM58.9777 50V43.056H60.0417L60.1397 44.386C60.3544 43.9287 60.6811 43.5647 61.1197 43.294C61.5584 43.0233 62.0997 42.888 62.7437 42.888V44.12H62.4217C62.0111 44.12 61.6331 44.1947 61.2877 44.344C60.9424 44.484 60.6671 44.7267 60.4617 45.072C60.2564 45.4173 60.1537 45.8933 60.1537 46.5V50H58.9777ZM66.3737 50.168C65.795 50.168 65.3143 50.07 64.9317 49.874C64.549 49.678 64.2643 49.4167 64.0777 49.09C63.891 48.7633 63.7977 48.4087 63.7977 48.026C63.7977 47.3167 64.0683 46.7707 64.6097 46.388C65.151 46.0053 65.8883 45.814 66.8217 45.814H68.6977V45.73C68.6977 45.1233 68.539 44.666 68.2217 44.358C67.9043 44.0407 67.4797 43.882 66.9477 43.882C66.4903 43.882 66.0937 43.9987 65.7577 44.232C65.431 44.456 65.2257 44.7873 65.1417 45.226H63.9377C63.9843 44.722 64.1523 44.2973 64.4417 43.952C64.7403 43.6067 65.109 43.3453 65.5477 43.168C65.9863 42.9813 66.453 42.888 66.9477 42.888C67.9183 42.888 68.6463 43.1493 69.1317 43.672C69.6263 44.1853 69.8737 44.8713 69.8737 45.73V50H68.8237L68.7537 48.754C68.5577 49.146 68.2683 49.482 67.8857 49.762C67.5123 50.0327 67.0083 50.168 66.3737 50.168ZM66.5557 49.174C67.0037 49.174 67.3863 49.0573 67.7037 48.824C68.0303 48.5907 68.2777 48.2873 68.4457 47.914C68.6137 47.5407 68.6977 47.1487 68.6977 46.738V46.724H66.9197C66.229 46.724 65.739 46.8453 65.4497 47.088C65.1697 47.3213 65.0297 47.6153 65.0297 47.97C65.0297 48.334 65.1603 48.628 65.4217 48.852C65.6923 49.0667 66.0703 49.174 66.5557 49.174ZM71.6379 50V43.056H72.7019L72.7719 44.302C72.9959 43.8633 73.3179 43.518 73.7379 43.266C74.1579 43.014 74.6339 42.888 75.1659 42.888C75.9872 42.888 76.6405 43.14 77.1259 43.644C77.6205 44.1387 77.8679 44.904 77.8679 45.94V50H76.6919V46.066C76.6919 44.6193 76.0945 43.896 74.8999 43.896C74.3025 43.896 73.8032 44.1153 73.4019 44.554C73.0099 44.9833 72.8139 45.5993 72.8139 46.402V50H71.6379Z" fill="black"/>
<circle cx="39.5" cy="13.5" r="12.5" fill="#8A4742" stroke="black" stroke-width="2"/>
<path d="M39.1029 18V10.244L37.4929 10.622V9.25L39.8589 8.2H40.9649V18H39.1029Z" fill="white"/>
<path d="M321.136 50L317.454 40.2H318.728L321.822 48.754L324.944 40.2H326.19L322.508 50H321.136ZM329.669 50.168C329.006 50.168 328.418 50.0187 327.905 49.72C327.392 49.412 326.986 48.9873 326.687 48.446C326.398 47.9047 326.253 47.2653 326.253 46.528C326.253 45.8 326.398 45.1653 326.687 44.624C326.976 44.0733 327.378 43.6487 327.891 43.35C328.414 43.042 329.016 42.888 329.697 42.888C330.369 42.888 330.948 43.042 331.433 43.35C331.928 43.6487 332.306 44.0453 332.567 44.54C332.828 45.0347 332.959 45.5667 332.959 46.136C332.959 46.2387 332.954 46.3413 332.945 46.444C332.945 46.5467 332.945 46.6633 332.945 46.794H327.415C327.443 47.326 327.564 47.7693 327.779 48.124C328.003 48.4693 328.278 48.7307 328.605 48.908C328.941 49.0853 329.296 49.174 329.669 49.174C330.154 49.174 330.56 49.062 330.887 48.838C331.214 48.614 331.452 48.3107 331.601 47.928H332.763C332.576 48.572 332.217 49.1087 331.685 49.538C331.162 49.958 330.49 50.168 329.669 50.168ZM329.669 43.882C329.109 43.882 328.61 44.0547 328.171 44.4C327.742 44.736 327.494 45.2307 327.429 45.884H331.797C331.769 45.2587 331.554 44.7687 331.153 44.414C330.752 44.0593 330.257 43.882 329.669 43.882ZM334.518 50V43.056H335.582L335.68 44.386C335.894 43.9287 336.221 43.5647 336.66 43.294C337.098 43.0233 337.64 42.888 338.284 42.888V44.12H337.962C337.551 44.12 337.173 44.1947 336.828 44.344C336.482 44.484 336.207 44.7267 336.002 45.072C335.796 45.4173 335.694 45.8933 335.694 46.5V50H334.518ZM340.318 41.516C340.084 41.516 339.888 41.4413 339.73 41.292C339.58 41.1333 339.506 40.9373 339.506 40.704C339.506 40.48 339.58 40.2933 339.73 40.144C339.888 39.9947 340.084 39.92 340.318 39.92C340.542 39.92 340.733 39.9947 340.892 40.144C341.05 40.2933 341.13 40.48 341.13 40.704C341.13 40.9373 341.05 41.1333 340.892 41.292C340.733 41.4413 340.542 41.516 340.318 41.516ZM339.73 50V43.056H340.906V50H339.73ZM343.331 50V44.05H342.281V43.056H343.331V41.852C343.331 41.18 343.499 40.69 343.835 40.382C344.171 40.074 344.661 39.92 345.305 39.92H346.005V40.928H345.487C345.133 40.928 344.881 41.0027 344.731 41.152C344.582 41.292 344.507 41.5347 344.507 41.88V43.056H348.819V50H347.643V44.05H344.507V50H343.331ZM348.245 41.726C348.021 41.726 347.83 41.6513 347.671 41.502C347.513 41.3433 347.433 41.1473 347.433 40.914C347.433 40.69 347.513 40.5033 347.671 40.354C347.83 40.2047 348.021 40.13 348.245 40.13C348.479 40.13 348.67 40.2047 348.819 40.354C348.978 40.5033 349.057 40.69 349.057 40.914C349.057 41.1473 348.978 41.3433 348.819 41.502C348.67 41.6513 348.479 41.726 348.245 41.726ZM350.897 50V39.92H352.073V45.982L354.915 43.056H356.357L353.277 46.192L356.749 50H355.251L352.073 46.402V50H350.897ZM360.207 50.168C359.628 50.168 359.147 50.07 358.765 49.874C358.382 49.678 358.097 49.4167 357.911 49.09C357.724 48.7633 357.631 48.4087 357.631 48.026C357.631 47.3167 357.901 46.7707 358.443 46.388C358.984 46.0053 359.721 45.814 360.655 45.814H362.531V45.73C362.531 45.1233 362.372 44.666 362.055 44.358C361.737 44.0407 361.313 43.882 360.781 43.882C360.323 43.882 359.927 43.9987 359.591 44.232C359.264 44.456 359.059 44.7873 358.975 45.226H357.771C357.817 44.722 357.985 44.2973 358.275 43.952C358.573 43.6067 358.942 43.3453 359.381 43.168C359.819 42.9813 360.286 42.888 360.781 42.888C361.751 42.888 362.479 43.1493 362.965 43.672C363.459 44.1853 363.707 44.8713 363.707 45.73V50H362.657L362.587 48.754C362.391 49.146 362.101 49.482 361.719 49.762C361.345 50.0327 360.841 50.168 360.207 50.168ZM360.389 49.174C360.837 49.174 361.219 49.0573 361.537 48.824C361.863 48.5907 362.111 48.2873 362.279 47.914C362.447 47.5407 362.531 47.1487 362.531 46.738V46.724H360.753C360.062 46.724 359.572 46.8453 359.283 47.088C359.003 47.3213 358.863 47.6153 358.863 47.97C358.863 48.334 358.993 48.628 359.255 48.852C359.525 49.0667 359.903 49.174 360.389 49.174ZM368.131 50.168C367.3 50.168 366.61 49.958 366.059 49.538C365.508 49.118 365.186 48.5487 365.093 47.83H366.297C366.372 48.194 366.563 48.5113 366.871 48.782C367.188 49.0433 367.613 49.174 368.145 49.174C368.64 49.174 369.004 49.0713 369.237 48.866C369.47 48.6513 369.587 48.3993 369.587 48.11C369.587 47.69 369.433 47.41 369.125 47.27C368.826 47.13 368.402 47.004 367.851 46.892C367.478 46.8173 367.104 46.71 366.731 46.57C366.358 46.43 366.045 46.234 365.793 45.982C365.541 45.7207 365.415 45.38 365.415 44.96C365.415 44.3533 365.639 43.8587 366.087 43.476C366.544 43.084 367.16 42.888 367.935 42.888C368.672 42.888 369.274 43.0747 369.741 43.448C370.217 43.812 370.492 44.3347 370.567 45.016H369.405C369.358 44.6613 369.204 44.386 368.943 44.19C368.691 43.9847 368.35 43.882 367.921 43.882C367.501 43.882 367.174 43.9707 366.941 44.148C366.717 44.3253 366.605 44.5587 366.605 44.848C366.605 45.128 366.75 45.3473 367.039 45.506C367.338 45.6647 367.739 45.8 368.243 45.912C368.672 46.0053 369.078 46.122 369.461 46.262C369.853 46.3927 370.17 46.5933 370.413 46.864C370.665 47.1253 370.791 47.508 370.791 48.012C370.8 48.6373 370.562 49.1553 370.077 49.566C369.601 49.9673 368.952 50.168 368.131 50.168ZM373.185 41.516C372.952 41.516 372.756 41.4413 372.597 41.292C372.448 41.1333 372.373 40.9373 372.373 40.704C372.373 40.48 372.448 40.2933 372.597 40.144C372.756 39.9947 372.952 39.92 373.185 39.92C373.409 39.92 373.6 39.9947 373.759 40.144C373.918 40.2933 373.997 40.48 373.997 40.704C373.997 40.9373 373.918 41.1333 373.759 41.292C373.6 41.4413 373.409 41.516 373.185 41.516ZM372.597 50V43.056H373.773V50H372.597Z" fill="black"/>
<circle cx="346.5" cy="13.5" r="12.5" stroke="black" stroke-width="2"/>
<path d="M346.488 18.168C345.844 18.168 345.261 18.056 344.738 17.832C344.215 17.5987 343.795 17.244 343.478 16.768C343.161 16.292 342.993 15.6947 342.974 14.976H344.738C344.747 15.452 344.901 15.8533 345.2 16.18C345.508 16.4973 345.937 16.656 346.488 16.656C347.011 16.656 347.412 16.5113 347.692 16.222C347.972 15.9327 348.112 15.5687 348.112 15.13C348.112 14.6167 347.925 14.2293 347.552 13.968C347.188 13.6973 346.717 13.562 346.138 13.562H345.41V12.092H346.152C346.628 12.092 347.025 11.98 347.342 11.756C347.659 11.532 347.818 11.2007 347.818 10.762C347.818 10.398 347.697 10.1087 347.454 9.894C347.221 9.67 346.894 9.558 346.474 9.558C346.017 9.558 345.657 9.69333 345.396 9.964C345.144 10.2347 345.004 10.566 344.976 10.958H343.226C343.263 10.0527 343.576 9.33867 344.164 8.816C344.761 8.29333 345.531 8.032 346.474 8.032C347.146 8.032 347.711 8.15333 348.168 8.396C348.635 8.62933 348.985 8.942 349.218 9.334C349.461 9.726 349.582 10.16 349.582 10.636C349.582 11.1867 349.428 11.6533 349.12 12.036C348.821 12.4093 348.448 12.6613 348 12.792C348.551 12.904 348.999 13.1747 349.344 13.604C349.689 14.024 349.862 14.556 349.862 15.2C349.862 15.7413 349.731 16.236 349.47 16.684C349.209 17.132 348.826 17.4913 348.322 17.762C347.827 18.0327 347.216 18.168 346.488 18.168Z" fill="black"/>
<path d="M155.264 50V40.2H158.428C159.193 40.2 159.818 40.326 160.304 40.578C160.789 40.83 161.148 41.1753 161.382 41.614C161.615 42.0527 161.732 42.538 161.732 43.07C161.732 43.686 161.564 44.2413 161.228 44.736C160.901 45.2307 160.388 45.5807 159.688 45.786L161.83 50H160.444L158.456 45.954H158.372H156.44V50H155.264ZM156.44 45.03H158.344C159.1 45.03 159.65 44.848 159.996 44.484C160.341 44.12 160.514 43.6533 160.514 43.084C160.514 42.5053 160.341 42.048 159.996 41.712C159.66 41.3667 159.104 41.194 158.33 41.194H156.44V45.03ZM164.206 41.516C163.973 41.516 163.777 41.4413 163.618 41.292C163.469 41.1333 163.394 40.9373 163.394 40.704C163.394 40.48 163.469 40.2933 163.618 40.144C163.777 39.9947 163.973 39.92 164.206 39.92C164.43 39.92 164.622 39.9947 164.78 40.144C164.939 40.2933 165.018 40.48 165.018 40.704C165.018 40.9373 164.939 41.1333 164.78 41.292C164.622 41.4413 164.43 41.516 164.206 41.516ZM163.618 50V43.056H164.794V50H163.618ZM166.842 50V43.056H167.906L167.976 44.302C168.2 43.8633 168.522 43.518 168.942 43.266C169.362 43.014 169.838 42.888 170.37 42.888C171.191 42.888 171.845 43.14 172.33 43.644C172.825 44.1387 173.072 44.904 173.072 45.94V50H171.896V46.066C171.896 44.6193 171.299 43.896 170.104 43.896C169.507 43.896 169.007 44.1153 168.606 44.554C168.214 44.9833 168.018 45.5993 168.018 46.402V50H166.842ZM177.598 47.816C177.206 47.816 176.846 47.7647 176.52 47.662L175.82 48.32C175.922 48.3947 176.048 48.46 176.198 48.516C176.356 48.5627 176.58 48.6093 176.87 48.656C177.159 48.6933 177.565 48.7353 178.088 48.782C179.021 48.8473 179.688 49.062 180.09 49.426C180.491 49.79 180.692 50.266 180.692 50.854C180.692 51.2553 180.58 51.638 180.356 52.002C180.141 52.366 179.805 52.6647 179.348 52.898C178.9 53.1313 178.321 53.248 177.612 53.248C176.986 53.248 176.431 53.164 175.946 52.996C175.46 52.8373 175.082 52.59 174.812 52.254C174.541 51.9273 174.406 51.512 174.406 51.008C174.406 50.7467 174.476 50.462 174.616 50.154C174.756 49.8553 175.017 49.5707 175.4 49.3C175.194 49.216 175.017 49.1273 174.868 49.034C174.728 48.9313 174.597 48.8193 174.476 48.698V48.376L175.666 47.2C175.115 46.7333 174.84 46.1173 174.84 45.352C174.84 44.8947 174.947 44.4793 175.162 44.106C175.376 43.7327 175.689 43.4387 176.1 43.224C176.51 43 177.01 42.888 177.598 42.888C177.999 42.888 178.363 42.944 178.69 43.056H181.252V43.938L179.95 43.994C180.22 44.386 180.356 44.8387 180.356 45.352C180.356 45.8093 180.244 46.2247 180.02 46.598C179.805 46.9713 179.492 47.27 179.082 47.494C178.68 47.7087 178.186 47.816 177.598 47.816ZM177.598 46.85C178.092 46.85 178.484 46.724 178.774 46.472C179.072 46.2107 179.222 45.8373 179.222 45.352C179.222 44.876 179.072 44.512 178.774 44.26C178.484 43.9987 178.092 43.868 177.598 43.868C177.094 43.868 176.692 43.9987 176.394 44.26C176.104 44.512 175.96 44.876 175.96 45.352C175.96 45.8373 176.104 46.2107 176.394 46.472C176.692 46.724 177.094 46.85 177.598 46.85ZM175.554 50.896C175.554 51.3627 175.75 51.708 176.142 51.932C176.534 52.1653 177.024 52.282 177.612 52.282C178.19 52.282 178.652 52.156 178.998 51.904C179.352 51.652 179.53 51.316 179.53 50.896C179.53 50.5973 179.408 50.336 179.166 50.112C178.923 49.8973 178.475 49.7713 177.822 49.734C177.308 49.6967 176.865 49.65 176.492 49.594C176.109 49.7993 175.857 50.0187 175.736 50.252C175.614 50.4947 175.554 50.7093 175.554 50.896ZM182.578 50V39.92H183.754V45.982L186.596 43.056H188.038L184.958 46.192L188.43 50H186.932L183.754 46.402V50H182.578ZM191.888 50.168C191.31 50.168 190.829 50.07 190.446 49.874C190.064 49.678 189.779 49.4167 189.592 49.09C189.406 48.7633 189.312 48.4087 189.312 48.026C189.312 47.3167 189.583 46.7707 190.124 46.388C190.666 46.0053 191.403 45.814 192.336 45.814H194.212V45.73C194.212 45.1233 194.054 44.666 193.736 44.358C193.419 44.0407 192.994 43.882 192.462 43.882C192.005 43.882 191.608 43.9987 191.272 44.232C190.946 44.456 190.74 44.7873 190.656 45.226H189.452C189.499 44.722 189.667 44.2973 189.956 43.952C190.255 43.6067 190.624 43.3453 191.062 43.168C191.501 42.9813 191.968 42.888 192.462 42.888C193.433 42.888 194.161 43.1493 194.646 43.672C195.141 44.1853 195.388 44.8713 195.388 45.73V50H194.338L194.268 48.754C194.072 49.146 193.783 49.482 193.4 49.762C193.027 50.0327 192.523 50.168 191.888 50.168ZM192.07 49.174C192.518 49.174 192.901 49.0573 193.218 48.824C193.545 48.5907 193.792 48.2873 193.96 47.914C194.128 47.5407 194.212 47.1487 194.212 46.738V46.724H192.434C191.744 46.724 191.254 46.8453 190.964 47.088C190.684 47.3213 190.544 47.6153 190.544 47.97C190.544 48.334 190.675 48.628 190.936 48.852C191.207 49.0667 191.585 49.174 192.07 49.174ZM199.813 50.168C198.982 50.168 198.291 49.958 197.741 49.538C197.19 49.118 196.868 48.5487 196.775 47.83H197.979C198.053 48.194 198.245 48.5113 198.553 48.782C198.87 49.0433 199.295 49.174 199.827 49.174C200.321 49.174 200.685 49.0713 200.919 48.866C201.152 48.6513 201.269 48.3993 201.269 48.11C201.269 47.69 201.115 47.41 200.807 47.27C200.508 47.13 200.083 47.004 199.533 46.892C199.159 46.8173 198.786 46.71 198.413 46.57C198.039 46.43 197.727 46.234 197.475 45.982C197.223 45.7207 197.097 45.38 197.097 44.96C197.097 44.3533 197.321 43.8587 197.769 43.476C198.226 43.084 198.842 42.888 199.617 42.888C200.354 42.888 200.956 43.0747 201.423 43.448C201.899 43.812 202.174 44.3347 202.249 45.016H201.087C201.04 44.6613 200.886 44.386 200.625 44.19C200.373 43.9847 200.032 43.882 199.603 43.882C199.183 43.882 198.856 43.9707 198.623 44.148C198.399 44.3253 198.287 44.5587 198.287 44.848C198.287 45.128 198.431 45.3473 198.721 45.506C199.019 45.6647 199.421 45.8 199.925 45.912C200.354 46.0053 200.76 46.122 201.143 46.262C201.535 46.3927 201.852 46.5933 202.095 46.864C202.347 47.1253 202.473 47.508 202.473 48.012C202.482 48.6373 202.244 49.1553 201.759 49.566C201.283 49.9673 200.634 50.168 199.813 50.168ZM206.463 50.168C205.884 50.168 205.403 50.07 205.021 49.874C204.638 49.678 204.353 49.4167 204.167 49.09C203.98 48.7633 203.887 48.4087 203.887 48.026C203.887 47.3167 204.157 46.7707 204.699 46.388C205.24 46.0053 205.977 45.814 206.911 45.814H208.787V45.73C208.787 45.1233 208.628 44.666 208.311 44.358C207.993 44.0407 207.569 43.882 207.037 43.882C206.579 43.882 206.183 43.9987 205.847 44.232C205.52 44.456 205.315 44.7873 205.231 45.226H204.027C204.073 44.722 204.241 44.2973 204.531 43.952C204.829 43.6067 205.198 43.3453 205.637 43.168C206.075 42.9813 206.542 42.888 207.037 42.888C208.007 42.888 208.735 43.1493 209.221 43.672C209.715 44.1853 209.963 44.8713 209.963 45.73V50H208.913L208.843 48.754C208.647 49.146 208.357 49.482 207.975 49.762C207.601 50.0327 207.097 50.168 206.463 50.168ZM206.645 49.174C207.093 49.174 207.475 49.0573 207.793 48.824C208.119 48.5907 208.367 48.2873 208.535 47.914C208.703 47.5407 208.787 47.1487 208.787 46.738V46.724H207.009C206.318 46.724 205.828 46.8453 205.539 47.088C205.259 47.3213 205.119 47.6153 205.119 47.97C205.119 48.334 205.249 48.628 205.511 48.852C205.781 49.0667 206.159 49.174 206.645 49.174ZM211.727 50V43.056H212.791L212.861 44.302C213.085 43.8633 213.407 43.518 213.827 43.266C214.247 43.014 214.723 42.888 215.255 42.888C216.076 42.888 216.729 43.14 217.215 43.644C217.709 44.1387 217.957 44.904 217.957 45.94V50H216.781V46.066C216.781 44.6193 216.183 43.896 214.989 43.896C214.391 43.896 213.892 44.1153 213.491 44.554C213.099 44.9833 212.903 45.5993 212.903 46.402V50H211.727Z" fill="black"/>
<circle cx="187.5" cy="13.5" r="12.5" fill="#8A4742" stroke="black" stroke-width="2"/>
<path d="M184.715 18V16.698C185.312 16.2033 185.891 15.7133 186.451 15.228C187.02 14.7427 187.524 14.262 187.963 13.786C188.411 13.31 188.766 12.848 189.027 12.4C189.298 11.9427 189.433 11.4993 189.433 11.07C189.433 10.6687 189.321 10.314 189.097 10.006C188.882 9.698 188.523 9.544 188.019 9.544C187.506 9.544 187.118 9.712 186.857 10.048C186.596 10.384 186.465 10.79 186.465 11.266H184.729C184.748 10.5473 184.906 9.95 185.205 9.474C185.504 8.98867 185.9 8.62933 186.395 8.396C186.89 8.15333 187.445 8.032 188.061 8.032C189.06 8.032 189.834 8.30733 190.385 8.858C190.945 9.39933 191.225 10.104 191.225 10.972C191.225 11.5133 191.099 12.0407 190.847 12.554C190.604 13.0673 190.282 13.562 189.881 14.038C189.48 14.514 189.046 14.962 188.579 15.382C188.112 15.7927 187.66 16.1753 187.221 16.53H191.463V18H184.715Z" fill="white"/>
</svg>
