<svg width="74" height="72" viewBox="0 0 74 72" fill="none" xmlns="http://www.w3.org/2000/svg">
<path d="M5.09455 10.1891C7.90819 10.1891 10.1891 7.90819 10.1891 5.09455C10.1891 2.28091 7.90819 0 5.09455 0C2.28091 0 0 2.28091 0 5.09455C0 7.90819 2.28091 10.1891 5.09455 10.1891Z" fill="#8A4742" fill-opacity="0.5"/>
<path d="M5.09455 30.4933C7.90819 30.4933 10.1891 28.2124 10.1891 25.3987C10.1891 22.5851 7.90819 20.3042 5.09455 20.3042C2.28091 20.3042 0 22.5851 0 25.3987C0 28.2124 2.28091 30.4933 5.09455 30.4933Z" fill="#8A4742" fill-opacity="0.5"/>
<path d="M26.3655 10.1891C29.1792 10.1891 31.4601 7.90819 31.4601 5.09455C31.4601 2.28091 29.1792 0 26.3655 0C23.5519 0 21.271 2.28091 21.271 5.09455C21.271 7.90819 23.5519 10.1891 26.3655 10.1891Z" fill="#8A4742" fill-opacity="0.5"/>
<path d="M26.3655 30.4933C29.1792 30.4933 31.4601 28.2124 31.4601 25.3987C31.4601 22.5851 29.1792 20.3042 26.3655 20.3042C23.5519 20.3042 21.271 22.5851 21.271 25.3987C21.271 28.2124 23.5519 30.4933 26.3655 30.4933Z" fill="#8A4742" fill-opacity="0.5"/>
<path d="M47.6351 10.1891C50.4487 10.1891 52.7296 7.90819 52.7296 5.09455C52.7296 2.28091 50.4487 0 47.6351 0C44.8214 0 42.5405 2.28091 42.5405 5.09455C42.5405 7.90819 44.8214 10.1891 47.6351 10.1891Z" fill="#8A4742" fill-opacity="0.5"/>
<path d="M47.6351 30.4933C50.4487 30.4933 52.7296 28.2124 52.7296 25.3987C52.7296 22.5851 50.4487 20.3042 47.6351 20.3042C44.8214 20.3042 42.5405 22.5851 42.5405 25.3987C42.5405 28.2124 44.8214 30.4933 47.6351 30.4933Z" fill="#8A4742" fill-opacity="0.5"/>
<path d="M68.9056 10.1891C71.7192 10.1891 74.0001 7.90819 74.0001 5.09455C74.0001 2.28091 71.7192 0 68.9056 0C66.0919 0 63.811 2.28091 63.811 5.09455C63.811 7.90819 66.0919 10.1891 68.9056 10.1891Z" fill="#8A4742" fill-opacity="0.5"/>
<path d="M68.9056 30.4933C71.7192 30.4933 74.0001 28.2124 74.0001 25.3987C74.0001 22.5851 71.7192 20.3042 68.9056 20.3042C66.0919 20.3042 63.811 22.5851 63.811 25.3987C63.811 28.2124 66.0919 30.4933 68.9056 30.4933Z" fill="#8A4742" fill-opacity="0.5"/>
<path d="M5.09455 51.1542C7.90819 51.1542 10.1891 48.8733 10.1891 46.0596C10.1891 43.246 7.90819 40.9651 5.09455 40.9651C2.28091 40.9651 0 43.246 0 46.0596C0 48.8733 2.28091 51.1542 5.09455 51.1542Z" fill="#8A4742" fill-opacity="0.5"/>
<path d="M5.09455 71.4584C7.90819 71.4584 10.1891 69.1775 10.1891 66.3638C10.1891 63.5502 7.90819 61.2693 5.09455 61.2693C2.28091 61.2693 0 63.5502 0 66.3638C0 69.1775 2.28091 71.4584 5.09455 71.4584Z" fill="#8A4742" fill-opacity="0.5"/>
<path d="M26.3655 51.1542C29.1792 51.1542 31.4601 48.8733 31.4601 46.0596C31.4601 43.246 29.1792 40.9651 26.3655 40.9651C23.5519 40.9651 21.271 43.246 21.271 46.0596C21.271 48.8733 23.5519 51.1542 26.3655 51.1542Z" fill="#8A4742" fill-opacity="0.5"/>
<path d="M26.3655 71.4584C29.1792 71.4584 31.4601 69.1775 31.4601 66.3638C31.4601 63.5502 29.1792 61.2693 26.3655 61.2693C23.5519 61.2693 21.271 63.5502 21.271 66.3638C21.271 69.1775 23.5519 71.4584 26.3655 71.4584Z" fill="#8A4742" fill-opacity="0.5"/>
<path d="M47.6351 51.1542C50.4487 51.1542 52.7296 48.8733 52.7296 46.0596C52.7296 43.246 50.4487 40.9651 47.6351 40.9651C44.8214 40.9651 42.5405 43.246 42.5405 46.0596C42.5405 48.8733 44.8214 51.1542 47.6351 51.1542Z" fill="#8A4742" fill-opacity="0.5"/>
<path d="M47.6351 71.4584C50.4487 71.4584 52.7296 69.1775 52.7296 66.3638C52.7296 63.5502 50.4487 61.2693 47.6351 61.2693C44.8214 61.2693 42.5405 63.5502 42.5405 66.3638C42.5405 69.1775 44.8214 71.4584 47.6351 71.4584Z" fill="#8A4742" fill-opacity="0.5"/>
<path d="M68.9056 51.1542C71.7192 51.1542 74.0001 48.8733 74.0001 46.0596C74.0001 43.246 71.7192 40.9651 68.9056 40.9651C66.0919 40.9651 63.811 43.246 63.811 46.0596C63.811 48.8733 66.0919 51.1542 68.9056 51.1542Z" fill="#8A4742" fill-opacity="0.5"/>
<path d="M68.9056 71.4584C71.7192 71.4584 74.0001 69.1775 74.0001 66.3638C74.0001 63.5502 71.7192 61.2693 68.9056 61.2693C66.0919 61.2693 63.811 63.5502 63.811 66.3638C63.811 69.1775 66.0919 71.4584 68.9056 71.4584Z" fill="#8A4742" fill-opacity="0.5"/>
</svg>
