<svg width="1440" height="393" viewBox="0 0 1440 393" fill="none" xmlns="http://www.w3.org/2000/svg">
<path d="M1758.89 355.718C1722.68 383.118 1609.47 412.318 1507.04 405.318C1506.19 405.218 1203.18 402.918 1145.29 405.318C952.079 413.318 728.215 404.318 657.937 405.318C357.813 409.818 212.024 411.318 27.6774 405.318C8.02515 404.718 -13.5496 407.218 -27.8615 405.318C-37.6876 404.018 -45.9117 399.618 -52.854 393.418C-70.0497 378.218 -79.9826 352.318 -87.6726 335.818C-87.993 335.218 -88.2067 334.618 -88.5271 334.018C-90.77 329.118 -92.5857 324.018 -93.9742 318.818C-98.7804 281.418 -95.683 257.218 -77.6329 237.018C-73.6811 232.718 -69.4089 228.818 -64.7094 225.218C-64.0686 224.718 -63.4278 224.218 -62.6801 223.718C-41.6394 208.118 -9.17055 193.918 38.892 175.818C304.838 75.5184 535.324 146.918 798.066 144.118C809.708 144.018 821.136 143.818 832.137 143.518C834.593 143.418 837.157 143.418 839.613 143.318C874.539 142.318 906.58 140.718 936.593 138.618C945.458 138.018 954.109 137.418 962.653 136.718C1073.09 128.018 1158.11 114.218 1268.54 109.618C1289.8 108.718 1312.01 108.118 1335.51 108.018C1359.22 107.918 1384.43 108.218 1411.13 109.118C1413.27 109.218 1415.4 109.218 1417.54 109.318C1438.04 110.018 1458.66 110.518 1479.16 110.918C1481.84 111.018 1484.51 111.018 1487.28 111.018L1509.71 111.318C1760.38 114.118 1813.25 102.118 1841.24 206.218C1853.2 250.918 1797.13 326.718 1758.89 355.718Z" fill="#555C53"/>
<g filter="url(#filter0_i)">
<path d="M932.5 213.5C907.783 236.553 857.039 279.999 688.5 295.999C474.675 316.199 294.07 293.7 150.63 317.9C88.1488 328.4 -14.2777 372.999 -68.8554 393.799C-86.0511 378.599 -95.984 352.699 -103.674 336.199C-103.888 335.599 -104.208 335 -104.422 334.4C-106.665 329.5 -108.48 324.4 -109.869 319.2C-114.675 281.8 -111.578 257.6 -93.5274 237.4C-89.5756 233.1 -85.3034 229.2 -80.7108 225.6C-80.0699 225.1 -79.4291 224.6 -78.6815 224.1C37.9502 199.7 191.537 174.9 322.694 174.5C481.407 174 620.911 234.999 751 223.499C871.797 212.799 1006.12 166 921 140C929.865 139.4 941 142.499 949.5 146.499C961.116 151.965 984.5 165 932.5 213.5Z" fill="#CDD1D3"/>
</g>
<path d="M175.613 197.5C174.713 201.9 173.513 206.3 172.113 210.6C169.013 220 158.413 228.2 150.613 231.3C142.213 234.6 137.813 234.5 130.513 234.6C125.413 234.7 123.813 234 118.613 233.1C114.913 232.4 111.213 231.4 107.613 230.2C97.3126 226.7 87.5126 221.1 80.1126 212.3C79.3126 211.3 79.0126 210.2 78.0126 208.8C70.8126 198.7 80.5126 175.1 82.9126 167.8C87.2126 155.1 115.913 108.5 125.713 108.9C141.313 109.5 172.313 124.4 180.613 135.3C187.613 144.4 177.313 185.5 175.613 197.5Z" fill="#DFC6AA" stroke="#221A1B" stroke-width="1.46" stroke-miterlimit="10"/>
<path d="M175.613 197.4C174.713 201.8 173.613 206.2 172.213 210.4C168.913 220.4 158.513 228 150.713 231.2C142.313 234.6 137.913 234.3 130.613 234.6C125.513 234.8 123.913 234 118.713 233.1C115.013 232.4 111.313 231.5 107.713 230.2C97.4127 226.6 87.6127 221.2 80.2127 212.2C79.3127 211.2 78.5127 210.1 78.0127 208.9C72.6127 195.4 78.1127 180.1 83.2127 166.9C114.113 176.9 145.113 186.7 175.613 197.4Z" fill="#866C65" stroke="black" stroke-width="1.46" stroke-miterlimit="10" stroke-linecap="round"/>
<path d="M203.212 138.3C180.712 148.9 160.312 140.5 137.712 123.9C107.712 101.9 112.212 69.4001 136.012 44.0001C156.612 22.0001 178.312 15.5001 202.312 31.1001C223.712 45.1001 225.612 71.2001 217.812 92.9001C216.012 97.9001 211.912 103 208.812 107C207.912 108.2 207.312 108.7 206.412 109.7C206.312 109.8 206.512 109.8 206.612 110C212.212 116.5 215.312 132.6 203.212 138.3Z" fill="#D8AC8F" stroke="#563A36" stroke-width="1.31" stroke-miterlimit="10"/>
<path d="M208.713 114.7C211.413 114.7 211.213 107.3 205.213 109.5L208.713 114.7Z" fill="#D8AC8F"/>
<path d="M208.713 114.7C209.513 114.5 210.113 113.7 210.013 112.9C210.113 112.1 209.913 111.3 209.513 110.7C209.113 110 208.413 109.6 207.613 109.5C206.813 109.4 205.913 109.4 205.113 109.6C205.913 109.2 206.813 108.9 207.713 109C208.713 109.1 209.613 109.6 210.113 110.4C210.613 111.2 210.813 112.2 210.513 113.1C210.413 113.3 210.413 113.6 210.313 113.8C210.213 114 210.113 114.2 209.913 114.4C209.613 114.6 209.113 114.8 208.713 114.7Z" fill="#563A36"/>
<path d="M204.112 109.4C203.212 108.9 201.612 108.1 200.812 107.6C198.212 106.1 196.012 104.1 194.212 101.7C193.912 101.3 193.612 100.8 193.312 100.3C192.712 99.2001 192.212 97.9001 191.912 96.7001V96.6001C191.912 96.5001 191.812 96.2001 191.812 96.0001C191.812 95.8001 191.712 95.3001 191.612 95.0001C191.512 94.7001 191.512 94.3001 191.512 94.0001C191.512 93.6001 191.512 93.2001 191.512 92.8001C191.512 90.4001 192.112 88.1001 193.112 86.0001C193.212 85.7001 193.412 85.3001 193.612 85.0001C194.912 83.2001 196.612 83.3001 198.612 83.8001C199.812 84.1001 200.912 84.5001 202.012 84.9001C202.912 85.2001 204.012 85.7001 205.012 86.2001C205.412 86.4001 205.912 86.6001 206.312 86.8001C209.412 88.3001 212.412 89.9001 215.412 91.7001C216.212 92.2001 216.912 92.6001 217.712 93.1001C215.412 98.1001 212.312 102.9 208.812 107.1C208.412 107.7 207.912 108.2 207.412 108.8C207.512 109 205.012 109.9 204.112 109.4Z" fill="#020202"/>
<path opacity="0.37" d="M205.012 86.1004C200.412 88.3004 195.912 90.5004 191.412 92.7004C191.412 91.8004 191.512 90.8004 191.712 89.9004L202.012 84.9004C202.912 85.2004 204.012 85.7004 205.012 86.1004Z" fill="white"/>
<path opacity="0.37" d="M215.412 91.6003C208.112 94.5003 200.712 97.4003 193.312 100.3C192.312 98.3003 191.712 96.2003 191.412 94.0003C196.412 91.6003 201.312 89.2003 206.312 86.8003C209.412 88.2003 212.412 89.9003 215.412 91.6003Z" fill="white"/>
<path d="M187.012 43.8002C227.912 62.0002 259.212 93.8002 252.612 97.8002C233.912 109.1 200.512 83.6002 188.012 79.2002C163.012 70.4002 115.012 47.4002 111.712 23.1002C110.212 10.9002 177.612 39.6002 187.012 43.8002Z" fill="#573C39"/>
<path d="M187.012 43.8C199.912 49.5 212.112 56.5 223.512 64.7C229.312 68.8 234.813 73.1 240.013 77.8C242.613 80.2 245.113 82.6 247.513 85.2C248.713 86.5 249.812 87.9 250.913 89.3C252.013 90.7 252.912 92.3 253.612 94C254.012 94.9 254.113 96 253.913 97C253.713 97.6 253.312 98.1 252.812 98.4C252.413 98.6 252.012 98.9 251.612 99.1C250.012 99.9 248.313 100.6 246.513 100.9C243.013 101.6 239.312 101.7 235.812 101.1C228.713 100 222.013 97.4 215.613 94.5C209.213 91.6 203.013 88.1 196.913 84.8C193.913 83.1 190.812 81.6 187.613 80.3C184.312 79.1 181.012 77.9 177.712 76.5C164.612 71.2 152.112 64.7 140.212 57.1C134.212 53.3 128.713 48.9 123.613 44C121.013 41.5 118.712 38.8 116.712 35.9C114.612 33 113.012 29.7 112.012 26.3C111.812 25.4 111.613 24.5 111.413 23.7C111.313 23.2 111.312 22.7 111.312 22.2C111.413 21.6 111.713 21.1 112.113 20.7C112.913 20.1 113.812 19.8 114.812 19.7C115.713 19.6 116.612 19.6 117.512 19.7C121.012 20 124.513 20.7 127.913 21.6C134.713 23.4 141.412 25.7 148.012 28.1C161.212 32.8 174.212 38.1 187.012 43.8ZM187.012 43.9C174.112 38.3 161.113 33.1 147.913 28.3C141.313 26 134.612 23.8 127.812 22C124.413 21.1 121.012 20.5 117.512 20.2C116.612 20.1 115.713 20.2 114.913 20.3C114.013 20.4 113.212 20.7 112.512 21.2C112.212 21.5 112.013 21.9 111.913 22.3C111.913 22.7 111.912 23.2 112.012 23.6C112.112 24.5 112.313 25.3 112.613 26.1C113.613 29.5 115.213 32.6 117.312 35.4C119.413 38.2 121.712 40.9 124.212 43.3C129.312 48.1 134.913 52.4 140.913 56.2C152.813 63.7 165.312 70.1 178.312 75.3C181.613 76.6 184.812 77.9 188.113 79.1C191.413 80.4 194.513 81.9 197.613 83.7C203.812 87.1 209.912 90.5 216.212 93.5C222.512 96.5 229.113 99.1 236.113 100.2C239.613 100.8 243.113 100.8 246.513 100.1C248.213 99.8 249.913 99.2 251.413 98.4C252.113 98 253.113 97.7 253.312 96.8C253.512 96 253.413 95.1 253.013 94.3C252.313 92.7 251.513 91.2 250.413 89.8C249.413 88.4 248.312 87 247.112 85.7C244.812 83.1 242.312 80.6 239.712 78.2C234.512 73.5 229.113 69 223.312 65C212.012 56.7 199.812 49.6 187.012 43.9Z" fill="black"/>
<path d="M140.613 38.5003C140.713 38.3003 140.913 38.1003 141.113 37.9003C141.713 37.0003 142.813 35.8003 143.413 34.9003C145.113 32.5003 150.213 26.5003 151.313 24.9003C155.313 19.1003 172.013 -0.599699 177.213 1.0003C186.313 3.8003 184.113 12.9003 192.613 16.1003C204.513 20.7003 209.813 10.7003 224.313 19.4003C229.913 22.7003 227.513 53.4003 224.913 61.7003C224.213 63.9003 223.513 71.7003 222.613 74.6003C222.413 75.2003 222.313 76.3003 222.113 76.9003" fill="#573C39"/>
<path d="M140.613 38.4C142.713 35.6 144.713 32.7 146.813 30L150.013 25.9C150.513 25.2 151.013 24.5 151.513 23.8C152.013 23.1 152.513 22.4 153.013 21.7C155.113 18.9 157.313 16.2 159.613 13.6C161.913 11 164.313 8.4 166.813 6C168.113 4.8 169.413 3.6 170.813 2.5C171.513 2 172.313 1.5 173.113 1C174.013 0.5 174.913 0.2 175.913 0C176.213 0 176.513 0 176.813 0C177.013 0 177.113 6.10203e-06 177.313 0.100006H177.513L177.713 0.200012C178.113 0.300012 178.613 0.500012 179.013 0.700012C179.913 1.10001 180.713 1.50001 181.413 2.10001C182.913 3.20001 184.113 4.70002 185.013 6.30002C185.913 7.80002 186.713 9.40002 187.613 10.8C188.413 12.2 189.613 13.3 190.913 14.2C191.613 14.6 192.313 15 193.013 15.3C193.813 15.6 194.613 15.8 195.413 16C197.013 16.4 198.613 16.5 200.313 16.4C203.613 16.3 207.013 15.2 210.613 14.9C212.413 14.7 214.313 14.8 216.113 15.1C217.913 15.4 219.613 16 221.313 16.7C222.113 17.1 222.913 17.5 223.713 17.9L224.913 18.6C225.413 18.9 225.813 19.3 226.113 19.8C226.613 20.6 227.113 21.5 227.313 22.4C227.613 23.3 227.813 24.2 227.913 25.1C228.513 28.6 228.713 32.1 228.613 35.7C228.513 42.7 227.913 49.6 226.713 56.5C226.413 58.2 226.013 59.9 225.513 61.6C225.013 63.3 224.713 64.9 224.413 66.6C224.113 68.3 223.813 70 223.513 71.7C223.313 72.6 223.113 73.4 222.913 74.2C222.713 75 222.613 75.9 222.313 76.7C222.313 76.7 222.313 76.7 222.213 76.7V76.6C222.413 75.8 222.513 74.9 222.713 74.1C222.913 73.3 223.113 72.4 223.313 71.6C223.613 69.9 223.913 68.2 224.113 66.5C224.313 64.8 224.713 63.1 225.113 61.4C225.613 59.7 225.913 58 226.213 56.3C227.213 49.4 227.813 42.5 227.713 35.5C227.713 32 227.513 28.6 226.913 25.1C226.713 23.4 226.113 21.7 225.213 20.3C225.013 19.9 224.713 19.7 224.313 19.4L223.213 18.8C222.413 18.4 221.713 18 220.913 17.7C219.313 17 217.613 16.5 215.913 16.2C214.213 15.9 212.513 15.8 210.713 16C207.213 16.3 203.913 17.4 200.413 17.6C198.613 17.7 196.913 17.6 195.213 17.1C193.513 16.7 191.813 16 190.313 15.1C188.813 14.1 187.613 12.8 186.713 11.3C185.813 9.80002 185.013 8.30002 184.113 6.80002C183.213 5.30002 182.113 4.00002 180.713 2.90002C180.013 2.40002 179.313 1.90001 178.513 1.60001C177.813 1.20001 176.913 1 176.113 1C174.413 1.4 172.913 2.20002 171.513 3.30002C170.113 4.30002 168.813 5.40001 167.513 6.60001C157.313 16 149.313 27.6 140.613 38.4C140.613 38.5 140.613 38.5 140.613 38.4Z" fill="black"/>
<path d="M222.913 72.1002C209.113 66.7002 202.113 64.3002 187.213 57.1002C175.613 51.5002 156.613 41.6002 143.713 34.9002C145.213 32.1002 147.513 29.8002 149.513 27.2002C163.913 34.2002 178.713 41.4002 193.013 48.3002C203.713 53.5002 213.813 57.7002 224.513 62.4002C224.013 65.6002 223.213 68.7002 222.913 72.1002Z" fill="#422623"/>
<path d="M199.713 131.8C201.113 132 202.413 132.5 203.613 133.1C204.213 133.4 204.813 133.8 205.413 134.2C206.013 134.7 206.413 135.2 206.813 135.9C206.313 135.4 205.813 135 205.213 134.6C204.613 134.2 204.013 133.9 203.413 133.6C202.213 133 201.013 132.4 199.713 131.8Z" fill="#563A36"/>
<path d="M171.012 148.1C174.312 150.1 177.712 152.1 181.012 154.1C181.212 150.6 181.512 147.2 181.612 143.7" fill="#DFC6AA"/>
<path d="M171.012 148.1C172.712 149 174.412 149.9 176.112 150.8C177.812 151.7 179.512 152.7 181.112 153.7L180.512 154C180.612 152.3 180.712 150.5 180.912 148.8C181.112 147.1 181.312 145.3 181.512 143.6C181.512 145.3 181.512 147.1 181.412 148.8C181.312 150.5 181.312 152.3 181.212 154V154.6L180.712 154.3C179.012 153.3 177.412 152.3 175.812 151.3C174.212 150.3 172.512 149.2 171.012 148.1Z" fill="#917363"/>
<path d="M136.112 276.7C129.112 276.6 116.712 275.4 115.012 267C114.812 266 115.312 265.9 115.412 265.1C115.312 265.3 115.112 264.8 115.012 265.4C114.812 258.6 115.212 262.9 114.912 253.5C114.612 244.1 114.912 222 116.912 210.2C126.512 217.3 137.312 220.9 149.112 223.8C148.312 231.3 148.712 245 149.012 251.1C149.312 257.2 149.212 255.5 149.412 260.1C152.312 261.5 158.312 262.9 157.512 267.6C156.012 275.5 143.112 276.7 136.112 276.7Z" fill="#866C65" stroke="black" stroke-width="1.46" stroke-miterlimit="10" stroke-linecap="round"/>
<path d="M136.112 276.7C129.112 276.6 116.712 275.4 115.012 267C114.812 266 115.312 265.9 115.412 265.1C115.312 265.1 115.112 265.1 115.012 265.1C115.012 261.7 115.012 258.3 114.912 254.9C126.312 253.9 137.712 252.8 149.012 251.8C149.212 254.5 149.212 257.2 149.412 259.8C152.312 261.4 158.312 262.7 157.512 267.5C156.012 275.6 143.112 276.7 136.112 276.7Z" fill="#543836" stroke="#221A1B" stroke-width="1.46" stroke-miterlimit="10" stroke-linecap="round"/>
<path d="M137.812 267.7C136.012 276 123.612 277 116.012 276.7C108.912 276.4 97.8122 274.8 94.8122 266.9C94.7122 266.6 94.6122 266.2 94.7122 265.9C94.8122 258.6 94.7122 252.5 94.5122 244.9C94.3122 237.3 94.3122 228.1 94.7122 220.2C99.1122 220.5 103.512 220.5 107.912 220.2C114.912 219.5 121.812 217.8 128.412 215.1C127.712 225.5 127.712 236 128.312 246.4C128.812 253.8 128.912 253.4 129.212 259.3C132.412 260.9 138.812 262.6 137.812 267.7Z" fill="#866C65" stroke="black" stroke-width="1.46" stroke-miterlimit="10" stroke-linecap="round"/>
<path d="M137.812 267.7C136.012 276 123.612 277 116.012 276.7C108.912 276.4 97.8117 274.8 94.8117 266.9C94.7117 266.6 94.6117 266.2 94.7117 265.9C94.8117 259 94.7117 252 94.5117 245.1C105.812 245.9 117.112 246.6 128.412 247.2C128.712 251.2 129.012 255.2 129.212 259.2C132.412 261 138.812 262.6 137.812 267.7Z" fill="#543836" stroke="#221A1B" stroke-width="1.46" stroke-miterlimit="10" stroke-linecap="round"/>
<path d="M175.713 197.1C175.713 197.3 175.613 197.6 175.613 197.8C175.413 198.8 175.113 199.8 174.613 200.8C169.013 212.5 165.513 225.1 164.213 238C132.113 234.3 94.8134 239.1 68.4134 216.5C66.0134 201.2 73.2134 184.1 79.1134 170.3C79.2134 170 79.3134 169.8 79.5134 169.5C79.7134 169.2 79.7134 169 79.9134 168.7C80.7134 167 81.5134 165.3 82.4134 163.7C82.5134 163.5 82.6134 163.4 82.7134 163.2C92.9134 145.6 105.213 129.4 118.013 113.7C115.813 105.2 113.913 96.6001 111.813 88.1001C134.013 96.7001 156.413 104.9 178.713 113.2C180.213 137.5 179.613 161.8 176.813 186C176.713 186.8 176.813 187.8 176.813 188.6C176.813 189.1 176.913 190 176.813 190.6C176.613 192.6 176.313 194.4 176.013 196.3C175.813 196.4 175.813 196.8 175.713 197.1Z" fill="#423838"/>
<path d="M175.713 197.1C175.613 197.3 175.713 197.5 175.613 197.8L175.413 198.4C175.313 198.8 175.213 199.3 175.113 199.7C174.813 200.5 174.413 201.3 174.013 202.1C173.213 203.7 172.613 205.3 171.913 207C170.613 210.3 169.413 213.7 168.413 217.1C166.413 223.9 165.013 230.9 164.413 238V238.2H164.213C147.613 236.4 130.913 236.8 114.313 234.9C106.013 234 97.7131 232.3 89.8131 229.6C81.8131 226.8 74.4131 222.7 67.9131 217.3L67.6131 217.1L67.5131 216.7C66.8131 211.8 66.8131 206.7 67.6131 201.8C68.4131 196.9 69.6131 192.1 71.2131 187.5C72.7131 182.8 74.5131 178.3 76.4131 173.8C77.4131 171.6 78.2131 169.3 79.3131 167L80.9131 163.7C81.4131 162.6 82.1131 161.5 82.7131 160.5C87.7131 152.1 93.1131 143.9 98.9131 136C104.713 128.1 110.813 120.5 117.013 112.9L116.813 113.9C114.813 105.4 112.713 96.8003 110.713 88.3003L110.213 86.3003L112.113 87.0003L178.813 112.7L179.113 112.8V113.1C179.513 120.1 179.713 127.1 179.713 134.2C179.713 141.2 179.613 148.2 179.313 155.2C179.013 162.2 178.513 169.2 177.913 176.2L177.413 181.4C177.213 183.1 176.913 184.9 176.813 186.6V187.9C176.813 188.3 176.813 188.8 176.813 189.2C176.813 190.1 176.813 191 176.613 191.8C176.313 193.6 176.113 195.4 175.713 197.1ZM175.613 197.1C175.913 195.4 176.113 193.6 176.413 191.9C176.613 191 176.613 190.2 176.613 189.3C176.613 188.9 176.613 188.4 176.613 188V186.7C176.713 184.9 177.013 183.2 177.113 181.5L177.613 176.3C178.313 169.3 178.713 162.3 179.013 155.3C179.513 141.3 179.313 127.2 178.513 113.2L178.613 113.3L111.713 88.2003L111.913 88.0003L118.113 113.6V113.7V113.8C105.813 128.9 94.0131 144.5 84.0131 161.2C82.7131 163.3 81.7131 165.5 80.6131 167.7C79.5131 169.9 78.6131 172.1 77.7131 174.4C75.8131 178.9 74.0131 183.4 72.5131 188C70.9131 192.6 69.7131 197.3 68.9131 202.1C68.1131 206.9 68.0131 211.8 68.7131 216.6V216.5C75.1131 221.9 82.4131 226.1 90.2131 228.9C98.1131 231.6 106.213 233.5 114.513 234.4C131.113 236.5 147.813 236.2 164.413 238.1L164.313 238.2C164.913 231.1 166.313 224 168.413 217.2C169.413 213.8 170.613 210.4 172.013 207.1C172.713 205.4 173.413 203.8 174.113 202.2C174.513 201.4 174.913 200.6 175.213 199.8C175.313 199.4 175.413 199 175.513 198.5C175.613 198.3 175.613 198.1 175.713 197.9C175.813 197.7 175.513 197.3 175.613 197.1Z" fill="#221A1B"/>
<path d="M175.612 197.2C174.212 196.9 172.712 196.5 171.212 196.2C169.712 195.9 167.112 195.3 165.712 195C157.812 193.3 141.912 190.3 135.812 189C114.712 184.5 97.6121 178.4 78.9121 170.3C79.2121 170.1 79.2121 169.8 79.4121 169.5C79.6121 169.2 79.6121 169 79.8121 168.7C80.6121 167 81.4121 165.3 82.3121 163.7C100.712 170.6 119.412 178.2 138.312 183.1C139.112 183.3 139.312 183.3 139.912 183.4C148.912 185.2 158.012 186.8 166.912 188.5C168.912 188.9 170.712 189.2 172.412 189.6C174.112 190 175.012 190.1 176.612 190.4C176.412 192.4 176.112 194.3 175.812 196.3C175.812 196.6 175.712 196.9 175.612 197.2Z" fill="#625650"/>
<path d="M170.912 197.1C171.012 196.3 170.912 197.1 171.112 195.9C171.312 194.7 172.012 190.8 172.212 189.6C172.412 188.4 172.312 188.8 172.512 188C173.812 188.2 175.112 188.3 176.412 188.5C176.512 187.6 176.612 186.7 176.612 185.8C173.612 185.3 170.612 185 167.512 184.6C167.212 186.1 167.112 186.9 166.812 188.6C166.512 190.3 166.012 193.2 165.712 194.9C165.412 196.6 165.312 197.7 165.012 199.3C168.212 199.6 171.412 200.1 174.612 200.4C175.012 199.5 175.312 198.7 175.512 197.7C174.012 197.6 172.412 197.3 170.912 197.1Z" fill="#9E7465"/>
<path d="M170.912 197.1C171.012 196.3 171.112 195.6 171.212 194.8L171.612 192.5C171.812 191 172.112 189.5 172.412 188V187.8H172.612C173.912 188 175.212 188.1 176.512 188.3L176.312 188.5L176.512 185.8L176.712 186.1C173.712 185.6 170.712 185.3 167.612 184.9L167.912 184.7L166.612 192.1C166.212 194.6 165.812 197 165.412 199.5L165.212 199.2C168.412 199.5 171.612 200 174.812 200.4L174.612 200.5C175.012 199.7 175.312 198.8 175.512 197.9L175.612 198L173.312 197.6L172.112 197.4L170.912 197.1ZM170.912 197.1C171.312 197.1 171.712 197.2 172.012 197.2L173.212 197.4L175.512 197.8C175.312 198.7 175.012 199.6 174.612 200.5C171.412 200.2 168.212 199.6 165.012 199.4C165.412 196.9 165.712 194.5 166.212 192C166.712 189.5 167.012 187.1 167.512 184.6C170.512 185 173.612 185.3 176.612 185.8L176.412 188.5C175.112 188.3 173.812 188.2 172.512 188C172.212 189.5 171.912 191 171.712 192.5L171.312 194.8C171.112 195.6 171.012 196.4 170.912 197.1Z" fill="black"/>
<path d="M217.813 163.1C216.413 166.1 213.713 172.8 209.513 173.5C205.513 181.4 201.713 189.3 198.013 197.2C197.813 197.7 197.513 197.7 197.113 197.5C196.613 197.3 196.113 197.1 195.613 196.8C195.213 196.6 195.013 196.3 195.213 195.9C198.913 187.9 202.913 180.2 206.913 172.3C204.813 168.7 208.813 162.3 210.113 159.6C211.813 156.1 216.213 145.1 220.913 147.4C225.613 149.7 219.513 159.7 217.813 163.1Z" fill="#020202"/>
<path d="M205.512 186.4C204.812 189.1 199.912 185.7 198.212 185.8C198.112 185.8 198.112 186 198.112 186C199.312 187.7 204.312 187.7 203.912 190.2C203.312 193.9 197.612 189.2 197.212 190.4C196.612 192.1 203.712 191.5 202.412 194.7C201.412 197.3 196.312 192.7 195.612 193.7C194.912 194.7 202.012 195.9 201.212 197.5C199.912 200 194.012 196.6 192.312 195.8C190.612 195 190.912 195 189.012 193.9C187.112 192.8 185.312 191.9 182.412 190.3C176.912 187.3 169.312 183.1 163.412 179.8C166.112 175.3 168.812 170.8 171.612 166.3C176.612 169.6 181.812 172.7 187.112 175.5C192.012 178 196.712 180.3 200.112 181.9C203.212 183.5 206.212 183.7 205.512 186.4Z" fill="#D8AC8F" stroke="#563A36" stroke-width="0.64" stroke-miterlimit="10"/>
<path d="M131.312 153.7C137.912 162.2 143.012 168.9 151.812 176C160.612 183.1 173.213 189.3 183.913 194.1C187.913 188 191.712 181.7 195.512 175.5C184.512 167.7 173.712 159.8 164.012 150.4" fill="#423838"/>
<path d="M131.313 153.6L136.813 160C138.613 162.1 140.513 164.2 142.413 166.2C146.213 170.2 150.413 173.9 154.913 177.2C159.413 180.4 164.213 183.3 169.113 185.8C174.113 188.4 179.113 190.7 184.213 193L182.813 193.4C186.813 187.3 190.613 181.1 194.513 174.9L194.813 176.2C189.413 172.2 184.013 168.2 178.813 164C176.213 161.9 173.613 159.7 171.113 157.4C168.613 155.1 166.213 152.8 163.913 150.4V150.3H164.013C173.613 159.7 184.613 167.6 195.513 175.3L195.613 175.4L195.513 175.5C191.713 181.7 187.913 188 183.913 194.1V194.2H183.813C178.713 192 173.613 189.6 168.613 186.9C163.613 184.3 158.813 181.4 154.213 178.1C149.713 174.7 145.513 170.9 141.713 166.6C138.113 162.5 134.713 158.1 131.313 153.6C131.213 153.7 131.213 153.6 131.213 153.6C131.213 153.6 131.213 153.6 131.313 153.6C131.213 153.6 131.313 153.6 131.313 153.6Z" fill="#221A1B"/>
<path d="M182.212 195.6C179.012 194.8 175.812 194.1 172.512 193.4C174.912 189.2 177.512 184.9 180.012 180.8C182.512 176.7 184.912 172.7 187.312 168.5C189.712 170.6 192.112 172.7 194.512 174.8C190.512 181.7 186.412 188.7 182.212 195.6Z" fill="#353535" stroke="black" stroke-width="1.42" stroke-miterlimit="10" stroke-linecap="round"/>
<defs>
<filter id="filter0_i" x="-111.895" y="139.925" width="1076.81" height="257.874" filterUnits="userSpaceOnUse" color-interpolation-filters="sRGB">
<feFlood flood-opacity="0" result="BackgroundImageFix"/>
<feBlend mode="normal" in="SourceGraphic" in2="BackgroundImageFix" result="shape"/>
<feColorMatrix in="SourceAlpha" type="matrix" values="0 0 0 0 0 0 0 0 0 0 0 0 0 0 0 0 0 0 127 0" result="hardAlpha"/>
<feOffset dy="4"/>
<feGaussianBlur stdDeviation="2"/>
<feComposite in2="hardAlpha" operator="arithmetic" k2="-1" k3="1"/>
<feColorMatrix type="matrix" values="0 0 0 0 0 0 0 0 0 0 0 0 0 0 0 0 0 0 0.25 0"/>
<feBlend mode="normal" in2="shape" result="effect1_innerShadow"/>
</filter>
</defs>
</svg>
