<svg width="348" height="133" viewBox="0 0 348 133" fill="none" xmlns="http://www.w3.org/2000/svg">
<g filter="url(#filter0_i)">
<path d="M336.531 91.8088C327.785 97.0755 309.831 107.001 250.198 110.657C174.542 115.272 110.64 110.131 59.8873 115.66C37.7799 118.059 1.53908 128.248 -17.7717 133C-23.856 129.527 -27.3705 123.61 -30.0914 119.841C-30.167 119.704 -30.2803 119.567 -30.3559 119.43C-31.1495 118.31 -31.7919 117.145 -32.2832 115.957C-33.9838 107.413 -32.8879 101.884 -26.5013 97.2689C-25.1031 96.2866 -23.5914 95.3956 -21.9665 94.5731C-21.7397 94.4589 -21.513 94.3447 -21.2485 94.2304C20.0185 88.656 74.3609 82.9902 120.767 82.8988C176.924 82.7846 226.283 96.7206 272.312 94.0933C315.053 91.6488 362.581 80.957 332.462 75.017C335.598 74.8799 339.538 75.588 342.546 76.5018C346.656 77.7506 354.93 80.7285 336.531 91.8088Z" fill="#CDD1D3"/>
</g>
<path d="M54.0712 78.32C53.7143 80.0649 53.2384 81.8097 52.6833 83.5149C51.4539 87.2426 47.2504 90.4943 44.1573 91.7236C40.8262 93.0323 39.0813 92.9926 36.1865 93.0323C34.164 93.072 33.5295 92.7944 31.4675 92.4375C30.0002 92.1599 28.5329 91.7633 27.1053 91.2874C23.0208 89.8995 19.1345 87.6788 16.2 84.1891C15.8828 83.7925 15.7638 83.3563 15.3672 82.8011C12.512 78.7959 16.3586 69.4372 17.3104 66.5423C19.0156 61.506 30.3967 43.0265 34.283 43.1851C40.4693 43.423 52.7626 49.3317 56.054 53.6542C58.8299 57.2629 54.7453 73.5613 54.0712 78.32Z" fill="#DFC6AA" stroke="#221A1B" stroke-width="1.46" stroke-miterlimit="10"/>
<path d="M54.0711 78.2805C53.7142 80.0254 53.278 81.7702 52.7228 83.4358C51.4142 87.4013 47.29 90.4152 44.1968 91.6842C40.8657 93.0324 39.1209 92.9135 36.226 93.0325C34.2036 93.1118 33.5691 92.7945 31.507 92.4376C30.0397 92.16 28.5725 91.8031 27.1449 91.2876C23.0603 89.86 19.1741 87.7186 16.2396 84.1496C15.8827 83.753 15.5654 83.3168 15.3671 82.8409C13.2257 77.4874 15.4068 71.4201 17.4292 66.1855C29.6828 70.1511 41.9761 74.0374 54.0711 78.2805Z" fill="#866C65" stroke="black" stroke-width="1.46" stroke-miterlimit="10" stroke-linecap="round"/>
<path d="M65.016 54.8439C56.0934 59.0474 48.0037 55.7163 39.0415 49.1335C27.1448 40.4092 28.9293 27.5211 38.3674 17.4486C46.5364 8.7243 55.1417 6.14668 64.6591 12.333C73.1454 17.8848 73.8989 28.2349 70.8057 36.8402C70.0919 38.823 68.466 40.8454 67.2367 42.4316C66.8798 42.9075 66.6419 43.1058 66.285 43.5023C66.2453 43.542 66.3246 43.542 66.3643 43.6213C68.585 46.1989 69.8143 52.5835 65.016 54.8439Z" fill="#D8AC8F" stroke="#563A36" stroke-width="1.31" stroke-miterlimit="10"/>
<path d="M67.1973 45.4853C68.268 45.4853 68.1887 42.5507 65.8093 43.4232L67.1973 45.4853Z" fill="#D8AC8F"/>
<path d="M67.1974 45.4852C67.5146 45.4059 67.7526 45.0887 67.7129 44.7714C67.7526 44.4542 67.6732 44.1369 67.5146 43.899C67.356 43.6214 67.0784 43.4628 66.7612 43.4231C66.4439 43.3835 66.087 43.3835 65.7698 43.4628C66.087 43.3042 66.4439 43.1852 66.8008 43.2248C67.1974 43.2645 67.5543 43.4628 67.7526 43.78C67.9508 44.0973 68.0301 44.4938 67.9112 44.8507C67.8715 44.9301 67.8715 45.049 67.8319 45.1283C67.7922 45.2076 67.7526 45.287 67.6732 45.3663C67.5543 45.4456 67.356 45.5249 67.1974 45.4852Z" fill="#563A36"/>
<path d="M65.3726 43.3834C65.0157 43.1851 64.3812 42.8678 64.064 42.6696C63.0329 42.0747 62.1605 41.2816 61.4467 40.3299C61.3277 40.1712 61.2087 39.973 61.0898 39.7747C60.8518 39.3385 60.6536 38.823 60.5346 38.3471V38.3074C60.5346 38.2678 60.4949 38.1488 60.4949 38.0695C60.4949 37.9902 60.4553 37.7919 60.4156 37.6729C60.376 37.554 60.376 37.3953 60.376 37.2764C60.376 37.1178 60.376 36.9591 60.376 36.8005C60.376 35.8488 60.6139 34.9367 61.0105 34.1039C61.0501 33.985 61.1294 33.8263 61.2087 33.7074C61.7243 32.9936 62.3984 33.0332 63.1915 33.2315C63.6674 33.3505 64.1036 33.5091 64.5398 33.6677C64.8967 33.7867 65.3329 33.985 65.7295 34.1832C65.8881 34.2626 66.0864 34.3419 66.245 34.4212C67.4743 35.016 68.664 35.6505 69.8537 36.3643C70.1709 36.5626 70.4485 36.7212 70.7658 36.9195C69.8537 38.9023 68.6244 40.8057 67.2364 42.4713C67.0778 42.7092 66.8795 42.9075 66.6812 43.1454C66.7209 43.2247 65.7295 43.5816 65.3726 43.3834Z" fill="#020202"/>
<path opacity="0.37" d="M65.7296 34.1437C63.9054 35.0161 62.1209 35.8886 60.3364 36.761C60.3364 36.4041 60.3761 36.0075 60.4554 35.6506L64.5399 33.6678C64.8968 33.7868 65.333 33.9851 65.7296 34.1437Z" fill="white"/>
<path opacity="0.37" d="M69.8538 36.3247C66.9589 37.4748 64.0244 38.6248 61.0899 39.7748C60.6933 38.9817 60.4554 38.1489 60.3364 37.2765C62.3192 36.3247 64.2623 35.373 66.2451 34.4213C67.4744 34.9764 68.6641 35.6506 69.8538 36.3247Z" fill="white"/>
<path d="M58.5917 17.3692C74.8109 24.5866 87.2231 37.1971 84.6058 38.7833C77.1902 43.2644 63.9452 33.1522 58.9883 31.4073C49.0743 27.9176 30.0396 18.7968 28.731 9.16049C28.1361 4.32249 54.8641 15.7037 58.5917 17.3692Z" fill="#573C39"/>
<path d="M58.5919 17.3692C63.7075 19.6296 68.5454 22.4055 73.0662 25.6573C75.3662 27.2832 77.5473 28.9884 79.6094 30.8522C80.6404 31.8039 81.6318 32.7556 82.5836 33.7867C83.0594 34.3022 83.4956 34.8574 83.9319 35.4126C84.3681 35.9677 84.725 36.6022 85.0026 37.2764C85.1612 37.6333 85.2008 38.0695 85.1215 38.4661C85.0422 38.704 84.8836 38.9023 84.6853 39.0212C84.5267 39.1006 84.3681 39.2195 84.2094 39.2988C83.575 39.6161 82.9008 39.8937 82.187 40.0126C80.7991 40.2902 79.3318 40.3299 77.9438 40.092C75.1283 39.6557 72.4714 38.6247 69.9334 37.4747C67.3954 36.3246 64.9368 34.9367 62.5178 33.6281C61.3281 32.9539 60.0988 32.3591 58.8298 31.8436C57.5212 31.3677 56.2125 30.8918 54.9039 30.3366C49.709 28.2349 44.752 25.6573 40.033 22.6434C37.6537 21.1365 35.4726 19.3917 33.4502 17.4485C32.4191 16.4571 31.507 15.3865 30.7139 14.2364C29.8811 13.0864 29.2467 11.7778 28.8501 10.4295C28.7708 10.0726 28.6915 9.71569 28.6122 9.39844C28.5725 9.20016 28.5725 9.00188 28.5725 8.8036C28.6122 8.56567 28.7311 8.36739 28.8898 8.20877C29.207 7.97084 29.5639 7.85187 29.9605 7.81221C30.3174 7.77256 30.6743 7.77256 31.0312 7.81221C32.4191 7.93118 33.8071 8.20877 35.1554 8.56567C37.8519 9.27947 40.5089 10.1916 43.1261 11.1433C48.3607 13.0071 53.5159 15.1089 58.5919 17.3692ZM58.5919 17.4089C53.4763 15.1882 48.321 13.1261 43.0865 11.2226C40.4692 10.3105 37.8123 9.43809 35.1157 8.72429C33.7674 8.36739 32.4191 8.12946 31.0312 8.01049C30.6743 7.97084 30.3174 8.01049 30.0001 8.05015C29.6432 8.0898 29.326 8.20877 29.0484 8.40705C28.9294 8.52601 28.8501 8.68464 28.8104 8.84326C28.8104 9.00189 28.8104 9.20016 28.8501 9.35878C28.8898 9.71568 28.9691 10.0329 29.088 10.3502C29.4846 11.6985 30.1191 12.9278 30.9519 14.0382C31.7846 15.1485 32.6967 16.2192 33.6881 17.171C35.7105 19.0744 37.9313 20.7796 40.3106 22.2865C45.0296 25.2607 49.9866 27.7987 55.1418 29.8608C56.4505 30.3763 57.7194 30.8918 59.0281 31.3677C60.3367 31.8832 61.566 32.4781 62.7954 33.1919C65.254 34.5401 67.673 35.8884 70.1713 37.0781C72.6696 38.2678 75.2869 39.2988 78.0628 39.735C79.4508 39.973 80.8387 39.973 82.187 39.6954C82.8612 39.5764 83.5353 39.3385 84.1301 39.0212C84.4077 38.8626 84.8043 38.7436 84.8836 38.3867C84.9629 38.0695 84.9233 37.7126 84.7646 37.3953C84.487 36.7609 84.1698 36.166 83.7336 35.6108C83.337 35.0557 82.9008 34.5005 82.4249 33.985C81.5129 32.9539 80.5215 31.9625 79.4904 31.0108C77.4283 29.147 75.2869 27.3625 72.9869 25.7762C68.5058 22.4848 63.6678 19.6693 58.5919 17.4089Z" fill="black"/>
<path d="M40.1919 15.2675C40.2316 15.1882 40.3109 15.1089 40.3902 15.0296C40.6281 14.6727 41.0643 14.1968 41.3023 13.8399C41.9764 12.8882 43.9988 10.5088 44.4351 9.87435C46.0213 7.57432 52.6438 -0.237861 54.7059 0.39663C58.3145 1.50699 57.4421 5.11566 60.8129 6.38464C65.5319 8.2088 67.6336 4.24324 73.3837 7.69329C75.6044 9.00192 74.6527 21.1762 73.6216 24.4676C73.3441 25.3401 73.0665 28.4332 72.7096 29.5832C72.6303 29.8212 72.5906 30.2574 72.5113 30.4953" fill="#573C39"/>
<path d="M40.1919 15.2278C41.0247 14.1174 41.8178 12.9674 42.6505 11.8967L43.9195 10.2708C44.1178 9.99324 44.3161 9.71565 44.5144 9.43806C44.7126 9.16047 44.9109 8.88288 45.1092 8.60529C45.942 7.49493 46.8144 6.42422 47.7265 5.39318C48.6386 4.36213 49.5903 3.33108 50.5817 2.37934C51.0972 1.90347 51.6127 1.4276 52.1679 0.991392C52.4455 0.793114 52.7627 0.594835 53.08 0.396557C53.4369 0.198278 53.7938 0.0793114 54.1904 0C54.3093 0 54.4283 0 54.5473 0C54.6266 0 54.6662 2.4198e-06 54.7455 0.0396581H54.8248L54.9042 0.0793162C55.0628 0.118972 55.2611 0.198283 55.4197 0.277595C55.7766 0.436217 56.0938 0.594838 56.3714 0.832772C56.9663 1.26898 57.4421 1.86382 57.799 2.49832C58.1559 3.09315 58.4732 3.72764 58.8301 4.28282C59.1473 4.838 59.6232 5.27421 60.1387 5.63111C60.4163 5.78974 60.6939 5.94836 60.9715 6.06733C61.2887 6.1863 61.606 6.2656 61.9232 6.34491C62.5577 6.50353 63.1922 6.5432 63.8663 6.50354C65.175 6.46389 66.5233 6.02767 67.9509 5.90871C68.6647 5.8294 69.4181 5.86904 70.1319 5.98801C70.8457 6.10698 71.5199 6.34492 72.194 6.62251C72.5113 6.78113 72.8285 6.93976 73.1458 7.09838L73.6216 7.37596C73.8199 7.49493 73.9785 7.65356 74.0975 7.85183C74.2958 8.16908 74.4941 8.52598 74.5734 8.88288C74.6923 9.23979 74.7717 9.59668 74.8113 9.95358C75.0493 11.3415 75.1286 12.7295 75.0889 14.1571C75.0493 16.933 74.8113 19.6692 74.3354 22.4055C74.2165 23.0796 74.0579 23.7538 73.8596 24.4279C73.6613 25.1021 73.5423 25.7365 73.4234 26.4107C73.3044 27.0848 73.1854 27.759 73.0665 28.4331C72.9872 28.79 72.9078 29.1073 72.8285 29.4245C72.7492 29.7418 72.7096 30.0987 72.5906 30.4159C72.5906 30.4159 72.5906 30.4159 72.5509 30.4159V30.3763C72.6302 30.059 72.6699 29.7021 72.7492 29.3849C72.8285 29.0676 72.9078 28.7107 72.9872 28.3935C73.1061 27.7193 73.2251 27.0452 73.3044 26.371C73.3837 25.6969 73.5423 25.0228 73.701 24.3486C73.8992 23.6745 74.0182 23.0003 74.1372 22.3262C74.5337 19.5899 74.7717 16.8537 74.732 14.0778C74.732 12.6898 74.6527 11.3415 74.4148 9.95358C74.3354 9.27943 74.0975 8.60529 73.7406 8.05011C73.6613 7.89149 73.5423 7.81218 73.3837 7.69321L72.9475 7.45528C72.6302 7.29665 72.3527 7.13803 72.0354 7.01906C71.4009 6.74147 70.7268 6.54319 70.0526 6.42423C69.3785 6.30526 68.7043 6.2656 67.9905 6.34491C66.6026 6.46388 65.294 6.90009 63.906 6.9794C63.1922 7.01906 62.518 6.9794 61.8439 6.78113C61.1698 6.6225 60.4956 6.34491 59.9008 5.98801C59.3059 5.59145 58.8301 5.07594 58.4732 4.4811C58.1163 3.88627 57.799 3.29143 57.4421 2.69659C57.0852 2.10176 56.649 1.58624 56.0938 1.15002C55.8162 0.951746 55.5386 0.753461 55.2214 0.634493C54.9438 0.475871 54.5869 0.396557 54.2697 0.396557C53.5955 0.55518 53.0007 0.872432 52.4455 1.30865C51.8903 1.7052 51.3748 2.14141 50.8593 2.61728C46.8144 6.34491 43.6419 10.945 40.1919 15.2278C40.1919 15.2675 40.1919 15.2675 40.1919 15.2278Z" fill="black"/>
<path d="M72.8285 28.5918C67.356 26.4504 64.5801 25.4986 58.6714 22.6434C54.0713 20.4227 46.5367 16.4968 41.4211 13.8399C42.016 12.7295 42.9281 11.8174 43.7212 10.7864C49.4316 13.5623 55.3006 16.4175 60.9714 19.1537C65.2146 21.2158 69.2198 22.8814 73.4629 24.7452C73.2647 26.0142 72.9474 27.2435 72.8285 28.5918Z" fill="#422623"/>
<path d="M63.6282 52.2664C64.1834 52.3457 64.6989 52.544 65.1747 52.7819C65.4127 52.9009 65.6506 53.0595 65.8886 53.2181C66.1265 53.4164 66.2851 53.6147 66.4437 53.8923C66.2455 53.694 66.0472 53.5354 65.8092 53.3767C65.5713 53.2181 65.3334 53.0991 65.0954 52.9802C64.6196 52.7422 64.1437 52.5043 63.6282 52.2664Z" fill="#563A36"/>
<path d="M52.2466 58.7302C53.5552 59.5233 54.9035 60.3164 56.2122 61.1096C56.2915 59.7216 56.4104 58.3733 56.4501 56.9854" fill="#DFC6AA"/>
<path d="M52.2466 58.7301C52.9207 59.087 53.5949 59.4438 54.269 59.8007C54.9432 60.1576 55.6173 60.5542 56.2518 60.9508L56.0139 61.0697C56.0535 60.3956 56.0932 59.6818 56.1725 59.0076C56.2518 58.3335 56.3311 57.6197 56.4104 56.9456C56.4104 57.6197 56.4104 58.3335 56.3708 59.0076C56.3311 59.6818 56.3311 60.3956 56.2915 61.0697V61.3077L56.0932 61.1887C55.419 60.7921 54.7845 60.3956 54.1501 59.999C53.5156 59.6025 52.8414 59.1663 52.2466 58.7301Z" fill="#917363"/>
<path d="M38.4069 109.727C35.631 109.688 30.7137 109.212 30.0395 105.881C29.9602 105.484 30.1585 105.445 30.1982 105.127C30.1585 105.207 30.0792 105.008 30.0395 105.246C29.9602 102.55 30.1188 104.255 29.9999 100.527C29.8809 96.7996 29.9999 88.0357 30.793 83.3563C34.5999 86.1719 38.8828 87.5995 43.5621 88.7495C43.2449 91.7237 43.4035 97.1565 43.5225 99.5755C43.6414 101.995 43.6018 101.32 43.6811 103.145C44.8311 103.7 47.2104 104.255 46.8932 106.119C46.2984 109.251 41.1828 109.727 38.4069 109.727Z" fill="#866C65" stroke="black" stroke-width="1.46" stroke-miterlimit="10" stroke-linecap="round"/>
<path d="M38.407 109.727C35.6311 109.688 30.7138 109.212 30.0397 105.881C29.9603 105.484 30.1586 105.445 30.1983 105.127C30.1586 105.127 30.0793 105.127 30.0397 105.127C30.0397 103.779 30.0397 102.431 30 101.082C34.5207 100.686 39.0415 100.25 43.5226 99.8531C43.6019 100.924 43.6019 101.995 43.6812 103.026C44.8312 103.66 47.2106 104.176 46.8933 106.079C46.2985 109.291 41.1829 109.727 38.407 109.727Z" fill="#543836" stroke="#221A1B" stroke-width="1.46" stroke-miterlimit="10" stroke-linecap="round"/>
<path d="M39.0812 106.158C38.3674 109.45 33.4501 109.846 30.4362 109.727C27.6207 109.608 23.2189 108.974 22.0292 105.841C21.9896 105.722 21.9499 105.563 21.9896 105.445C22.0292 102.55 21.9896 100.131 21.9102 97.1168C21.8309 94.103 21.8309 90.4547 21.9896 87.3219C23.7344 87.4408 25.4793 87.4408 27.2241 87.3219C30 87.0443 32.7363 86.3701 35.3535 85.2994C35.0759 89.4236 35.0759 93.5875 35.3139 97.7117C35.5122 100.646 35.5518 100.488 35.6708 102.827C36.9398 103.462 39.4777 104.136 39.0812 106.158Z" fill="#866C65" stroke="black" stroke-width="1.46" stroke-miterlimit="10" stroke-linecap="round"/>
<path d="M39.0808 106.158C38.367 109.45 33.4497 109.846 30.4359 109.727C27.6203 109.608 23.2186 108.974 22.0289 105.841C21.9892 105.722 21.9496 105.564 21.9892 105.445C22.0289 102.708 21.9892 99.9324 21.9099 97.1962C26.391 97.5134 30.8721 97.791 35.3532 98.0289C35.4722 99.6152 35.5911 101.201 35.6704 102.788C36.9394 103.501 39.4774 104.136 39.0808 106.158Z" fill="#543836" stroke="#221A1B" stroke-width="1.46" stroke-miterlimit="10" stroke-linecap="round"/>
<path d="M54.1111 78.1614C54.1111 78.2407 54.0714 78.3596 54.0714 78.4389C53.9921 78.8355 53.8731 79.232 53.6749 79.6286C51.4541 84.2683 50.0662 89.2649 49.5507 94.3805C36.8212 92.9132 22.0296 94.8167 11.5605 85.8545C10.6088 79.7872 13.464 73.0061 15.8037 67.5336C15.8433 67.4146 15.883 67.3353 15.9623 67.2164C16.0416 67.0974 16.0416 67.0181 16.1209 66.8991C16.4382 66.225 16.7554 65.5508 17.1123 64.9163C17.152 64.837 17.1916 64.7974 17.2313 64.7181C21.2761 57.7387 26.1538 51.3144 31.2297 45.0885C30.3573 41.7178 29.6038 38.3074 28.7711 34.9366C37.5746 38.347 46.4575 41.5988 55.3007 44.8902C55.8956 54.5265 55.6576 64.1629 54.5473 73.7596C54.5076 74.0768 54.5473 74.4734 54.5473 74.7906C54.5473 74.9889 54.5869 75.3458 54.5473 75.5837C54.468 76.3768 54.349 77.0906 54.23 77.8441C54.1507 77.8837 54.1507 78.0424 54.1111 78.1614Z" fill="#423838"/>
<path d="M54.1109 78.1615C54.0713 78.2408 54.1109 78.3201 54.0713 78.4391L53.992 78.6771C53.9523 78.8357 53.9127 79.034 53.873 79.1926C53.754 79.5098 53.5954 79.8271 53.4368 80.1443C53.1195 80.7788 52.8816 81.4133 52.604 82.0874C52.0885 83.3961 51.6126 84.7444 51.2161 86.0927C50.423 88.7893 49.8678 91.5651 49.6299 94.3807V94.46H49.5505C42.9677 93.7462 36.3452 93.9048 29.7623 93.1514C26.4709 92.7945 23.1795 92.1203 20.0467 91.0496C16.8742 89.9393 13.9397 88.3134 11.3621 86.172L11.2431 86.0927L11.2035 85.934C10.9259 83.9909 10.9259 81.9685 11.2431 80.0253C11.5604 78.0822 12.0363 76.1787 12.6707 74.3546C13.2656 72.4908 13.9794 70.7062 14.7328 68.9217C15.1294 68.0493 15.4466 67.1372 15.8829 66.2252L16.5173 64.9165C16.7156 64.4803 16.9932 64.0441 17.2311 63.6475C19.2139 60.3165 21.3553 57.0647 23.6554 53.9319C25.9554 50.7991 28.3744 47.7853 30.833 44.7714L30.7537 45.168C29.9606 41.7973 29.1279 38.3869 28.3347 35.0161L28.1365 34.223L28.8899 34.5006L55.3403 44.6921L55.4592 44.7318V44.8508C55.6179 47.6267 55.6972 50.4025 55.6972 53.2181C55.6972 55.994 55.6575 58.7699 55.5385 61.5458C55.4196 64.3217 55.2213 67.0976 54.9834 69.8735L54.7851 71.9356C54.7058 72.6097 54.5868 73.3235 54.5472 73.9977V74.5132C54.5472 74.6718 54.5472 74.8701 54.5472 75.0287C54.5472 75.3856 54.5472 75.7425 54.4678 76.0598C54.3489 76.7736 54.2696 77.4874 54.1109 78.1615ZM54.0713 78.1615C54.1903 77.4874 54.2696 76.7736 54.3885 76.0994C54.4678 75.7425 54.4678 75.4253 54.4678 75.0684C54.4678 74.9097 54.4678 74.7115 54.4678 74.5529V74.0373C54.5075 73.3235 54.6265 72.6494 54.6661 71.9752L54.8644 69.9131C55.142 67.1372 55.3006 64.3613 55.4196 61.5854C55.6179 56.0336 55.5385 50.4422 55.2213 44.8904L55.261 44.93L28.7313 34.9765L28.8106 34.8972L31.2693 45.049V45.0887V45.1283C26.3916 51.1163 21.7122 57.3026 17.7467 63.9251C17.2311 64.7579 16.8346 65.6303 16.3984 66.5028C15.9622 67.3752 15.6053 68.2476 15.2484 69.1597C14.4949 70.9442 13.7811 72.7287 13.1863 74.5529C12.5518 76.377 12.0759 78.2408 11.7587 80.1443C11.4414 82.0478 11.4018 83.9909 11.6794 85.8944V85.8547C14.2173 87.9961 17.1122 89.6617 20.2053 90.772C23.3381 91.8427 26.5502 92.5962 29.8417 92.9531C36.4245 93.7859 43.047 93.6669 49.6299 94.4204L49.5902 94.46C49.8281 91.6445 50.3833 88.8289 51.2161 86.1323C51.6126 84.784 52.0885 83.4357 52.6437 82.1271C52.9213 81.453 53.1989 80.8185 53.4765 80.184C53.6351 79.8667 53.7937 79.5495 53.9127 79.2322C53.9523 79.0736 53.992 78.915 54.0316 78.7167C54.0713 78.6374 54.0713 78.5581 54.1109 78.4788C54.1506 78.3995 54.0316 78.2408 54.0713 78.1615Z" fill="#221A1B"/>
<path d="M54.0709 78.2012C53.5158 78.0822 52.9209 77.9236 52.3261 77.8046C51.7312 77.6856 50.7002 77.4477 50.145 77.3287C47.0122 76.6546 40.707 75.4649 38.288 74.9494C29.9206 73.1649 23.1395 70.7459 15.7239 67.5338C15.8428 67.4545 15.8428 67.3355 15.9222 67.2165C16.0015 67.0976 16.0015 67.0183 16.0808 66.8993C16.398 66.2251 16.7153 65.551 17.0722 64.9165C24.3688 67.6527 31.7844 70.6666 39.2794 72.6097C39.5966 72.689 39.6759 72.689 39.9139 72.7287C43.4829 73.4425 47.0915 74.077 50.6209 74.7511C51.414 74.9097 52.1278 75.0287 52.802 75.1873C53.4761 75.346 53.833 75.3856 54.4675 75.5046C54.3882 76.2977 54.2692 77.0511 54.1502 77.8442C54.1502 77.9632 54.1106 78.0822 54.0709 78.2012Z" fill="#625650"/>
<path d="M52.2069 78.1614C52.2465 77.8442 52.2069 78.1614 52.2862 77.6856C52.3655 77.2097 52.6431 75.6631 52.7224 75.1873C52.8017 74.7114 52.7621 74.87 52.8414 74.5527C53.3569 74.6321 53.8724 74.6717 54.3879 74.751C54.4276 74.3941 54.4673 74.0372 54.4673 73.6803C53.2776 73.482 52.0879 73.3631 50.8586 73.2045C50.7396 73.7993 50.7 74.1165 50.581 74.7907C50.462 75.4648 50.2637 76.6149 50.1448 77.289C50.0258 77.9631 49.9862 78.3993 49.8672 79.0338C51.1362 79.1528 52.4052 79.3511 53.6741 79.4701C53.8328 79.1132 53.9517 78.7959 54.031 78.3994C53.4362 78.3597 52.8017 78.2407 52.2069 78.1614Z" fill="#9E7465"/>
<path d="M52.2069 78.1614C52.2465 77.8442 52.2862 77.5666 52.3258 77.2493L52.4845 76.3373C52.5638 75.7424 52.6827 75.1476 52.8017 74.5527V74.4734H52.881C53.3965 74.5527 53.9121 74.5924 54.4276 74.6717L54.3483 74.751L54.4276 73.6803L54.5069 73.7993C53.3172 73.601 52.1276 73.4821 50.8982 73.3234L51.0172 73.2441L50.5017 76.1786C50.3431 77.17 50.1844 78.1218 50.0258 79.1132L49.9465 78.9942C51.2155 79.1132 52.4845 79.3114 53.7534 79.4701L53.6741 79.5097C53.8328 79.1925 53.9517 78.8356 54.031 78.4787L54.0707 78.5183L53.1586 78.3597L52.6827 78.2804L52.2069 78.1614ZM52.2069 78.1614C52.3655 78.1614 52.5241 78.2011 52.6431 78.2011L53.119 78.2804L54.031 78.439C53.9517 78.7959 53.8328 79.1528 53.6741 79.5097C52.4052 79.3907 51.1362 79.1528 49.8672 79.0735C50.0258 78.0821 50.1448 77.1304 50.3431 76.139C50.5413 75.1476 50.6603 74.1959 50.8586 73.2045C52.0483 73.3631 53.2776 73.482 54.4673 73.6803L54.3879 74.751C53.8724 74.6717 53.3569 74.6321 52.8414 74.5527C52.7224 75.1476 52.6034 75.7424 52.5241 76.3373L52.3655 77.2493C52.2862 77.5666 52.2465 77.8838 52.2069 78.1614Z" fill="black"/>
<path d="M70.806 64.6786C70.2509 65.8682 69.1802 68.5252 67.5146 68.8028C65.9284 71.9356 64.4215 75.0684 62.9542 78.2012C62.8749 78.3994 62.7559 78.3994 62.5973 78.3201C62.399 78.2408 62.2008 78.1615 62.0025 78.0425C61.8439 77.9632 61.7645 77.8443 61.8439 77.6856C63.3111 74.5132 64.8974 71.4597 66.4836 68.3269C65.6508 66.8993 67.237 64.3613 67.7526 63.2906C68.4267 61.9027 70.1716 57.5405 72.0354 58.4526C73.8992 59.3647 71.4802 63.3303 70.806 64.6786Z" fill="#020202"/>
<path d="M65.928 73.9183C65.6504 74.989 63.7072 73.6407 63.0331 73.6804C62.9934 73.6804 62.9934 73.7597 62.9934 73.7597C63.4693 74.4338 65.4521 74.4338 65.2935 75.4252C65.0555 76.8925 62.7952 75.0287 62.6365 75.5045C62.3986 76.1787 65.2142 75.9408 64.6986 77.2097C64.3021 78.2408 62.2796 76.4166 62.002 76.8132C61.7245 77.2097 64.54 77.6856 64.2228 78.3201C63.7072 79.3115 61.3675 77.9632 60.6934 77.6459C60.0193 77.3287 60.1382 77.3287 59.3848 76.8925C58.6313 76.4563 57.9175 76.0994 56.7675 75.4649C54.5864 74.2752 51.5726 72.6097 49.2329 71.301C50.3036 69.5165 51.3743 67.732 52.4847 65.9475C54.4675 67.2561 56.5296 68.4855 58.6313 69.5958C60.5744 70.5872 62.4383 71.4993 63.7865 72.1338C65.0159 72.7683 66.2055 72.8476 65.928 73.9183Z" fill="#D8AC8F" stroke="#563A36" stroke-width="0.64" stroke-miterlimit="10"/>
<path d="M36.5037 60.951C39.1209 64.3217 41.1434 66.9786 44.6331 69.7942C48.1228 72.6097 53.1194 75.0684 57.3626 76.9719C58.9488 74.5529 60.4557 72.0546 61.9626 69.5959C57.6005 66.5028 53.3177 63.37 49.4711 59.6423" fill="#423838"/>
<path d="M36.5038 60.9113L38.6848 63.4493C39.3986 64.282 40.1521 65.1148 40.9056 65.9079C42.4125 67.4942 44.078 68.9614 45.8625 70.2701C47.647 71.539 49.5505 72.689 51.4936 73.6804C53.4764 74.7115 55.4592 75.6236 57.4816 76.5356L56.9265 76.6943C58.5127 74.2753 60.0196 71.8166 61.5662 69.358L61.6851 69.8735C59.5437 68.2873 57.4023 66.701 55.3402 65.0355C54.3092 64.2027 53.2781 63.3303 52.2867 62.4182C51.2953 61.5061 50.3436 60.5941 49.4315 59.6423V59.6027H49.4712C53.2781 63.3303 57.6403 66.4631 61.9627 69.5166L62.0024 69.5563L61.9627 69.5959C60.4558 72.0546 58.9489 74.5529 57.3627 76.9719V77.0115H57.323C55.3006 76.1391 53.2781 75.1874 51.2953 74.1167C49.3126 73.0856 47.4091 71.9356 45.5849 70.627C43.8004 69.2787 42.1349 67.7718 40.628 66.0666C39.2004 64.4407 37.8521 62.6958 36.5038 60.9113C36.4641 60.951 36.4641 60.9113 36.4641 60.9113C36.4641 60.9113 36.4641 60.9113 36.5038 60.9113C36.4641 60.9113 36.5038 60.9113 36.5038 60.9113Z" fill="#221A1B"/>
<path d="M56.6879 77.5665C55.4189 77.2493 54.1499 76.9717 52.8413 76.6941C53.793 75.0286 54.8241 73.3234 55.8155 71.6975C56.8069 70.0716 57.7586 68.4854 58.7104 66.8198C59.6621 67.6526 60.6138 68.4854 61.5656 69.3181C59.9793 72.0544 58.3534 74.8303 56.6879 77.5665Z" fill="#353535" stroke="black" stroke-width="1.42" stroke-miterlimit="10" stroke-linecap="round"/>
<defs>
<filter id="filter0_i" x="-33" y="75" width="381" height="62" filterUnits="userSpaceOnUse" color-interpolation-filters="sRGB">
<feFlood flood-opacity="0" result="BackgroundImageFix"/>
<feBlend mode="normal" in="SourceGraphic" in2="BackgroundImageFix" result="shape"/>
<feColorMatrix in="SourceAlpha" type="matrix" values="0 0 0 0 0 0 0 0 0 0 0 0 0 0 0 0 0 0 127 0" result="hardAlpha"/>
<feOffset dy="4"/>
<feGaussianBlur stdDeviation="2"/>
<feComposite in2="hardAlpha" operator="arithmetic" k2="-1" k3="1"/>
<feColorMatrix type="matrix" values="0 0 0 0 0 0 0 0 0 0 0 0 0 0 0 0 0 0 0.25 0"/>
<feBlend mode="normal" in2="shape" result="effect1_innerShadow"/>
</filter>
</defs>
</svg>
