<svg width="38" height="38" viewBox="0 0 38 38" fill="none" xmlns="http://www.w3.org/2000/svg">
<path d="M22.8551 18.9457C22.8551 20.7726 21.1048 22.2536 18.9457 22.2536C16.7865 22.2536 15.0363 20.7726 15.0363 18.9457C15.0363 17.1187 16.7865 15.6377 18.9457 15.6377C21.1048 15.6377 22.8551 17.1187 22.8551 18.9457Z" fill="white"/>
<path d="M27.2384 12.1546C27.0679 11.6767 26.796 11.2442 26.4426 10.8892C26.0995 10.5237 25.6817 10.2424 25.2195 10.0661C24.8447 9.91547 24.2816 9.73622 23.2444 9.68738C22.1225 9.63445 21.7861 9.62305 18.9458 9.62305C16.1051 9.62305 15.7688 9.63416 14.6471 9.68709C13.61 9.73622 13.0466 9.91547 12.672 10.0661C12.2099 10.2424 11.7918 10.5237 11.4489 10.8892C11.0955 11.2442 10.8236 11.6765 10.6529 12.1546C10.5073 12.5423 10.334 13.1251 10.2868 14.198C10.2356 15.3584 10.2246 15.7064 10.2246 18.6449C10.2246 21.5832 10.2356 21.9312 10.2868 23.0918C10.334 24.1647 10.5073 24.7472 10.6529 25.135C10.8236 25.6131 11.0953 26.0453 11.4486 26.4003C11.7918 26.7659 12.2096 27.0472 12.6717 27.2235C13.0466 27.3744 13.61 27.5536 14.6471 27.6025C15.7688 27.6554 16.1049 27.6665 18.9455 27.6665C21.7864 27.6665 22.1228 27.6554 23.2442 27.6025C24.2813 27.5536 24.8447 27.3744 25.2195 27.2235C26.1472 26.8533 26.8805 26.0947 27.2384 25.135C27.384 24.7472 27.5572 24.1647 27.6047 23.0918C27.6559 21.9312 27.6666 21.5832 27.6666 18.6449C27.6666 15.7064 27.6559 15.3584 27.6047 14.198C27.5575 13.1251 27.3842 12.5423 27.2384 12.1546ZM18.9458 24.2955C15.9288 24.2955 13.483 21.7657 13.483 18.6446C13.483 15.5236 15.9288 12.9938 18.9458 12.9938C21.9625 12.9938 24.4082 15.5236 24.4082 18.6446C24.4082 21.7657 21.9625 24.2955 18.9458 24.2955ZM24.6242 14.091C23.9192 14.091 23.3476 13.4997 23.3476 12.7704C23.3476 12.0411 23.9192 11.4498 24.6242 11.4498C25.3292 11.4498 25.9008 12.0411 25.9008 12.7704C25.9005 13.4997 25.3292 14.091 24.6242 14.091Z" fill="white"/>
<path d="M18.9457 0C8.48386 0 0 8.48386 0 18.9457C0 29.4074 8.48386 37.8913 18.9457 37.8913C29.4074 37.8913 37.8913 29.4074 37.8913 18.9457C37.8913 8.48386 29.4074 0 18.9457 0ZM29.759 23.4308C29.7064 24.5889 29.5222 25.3796 29.2534 26.0717C28.6882 27.533 27.533 28.6882 26.0717 29.2534C25.3799 29.5222 24.5889 29.7061 23.4311 29.759C22.271 29.8119 21.9004 29.8246 18.9459 29.8246C15.9912 29.8246 15.6209 29.8119 14.4605 29.759C13.3027 29.7061 12.5117 29.5222 11.8199 29.2534C11.0937 28.9802 10.4364 28.552 9.89287 27.9984C9.33956 27.4552 8.91142 26.7976 8.63823 26.0717C8.36938 25.3799 8.18523 24.5889 8.13262 23.4311C8.07913 22.2707 8.0667 21.9001 8.0667 18.9457C8.0667 15.9912 8.07913 15.6206 8.13233 14.4605C8.18494 13.3024 8.3688 12.5117 8.63765 11.8196C8.91084 11.0937 9.33927 10.4361 9.89287 9.89287C10.4361 9.33927 11.0937 8.91113 11.8196 8.63794C12.5117 8.36909 13.3024 8.18523 14.4605 8.13233C15.6206 8.07942 15.9912 8.0667 18.9457 8.0667C21.9001 8.0667 22.2707 8.07942 23.4308 8.13262C24.5889 8.18523 25.3796 8.36909 26.0717 8.63765C26.7976 8.91084 27.4552 9.33927 27.9987 9.89287C28.552 10.4364 28.9805 11.0937 29.2534 11.8196C29.5225 12.5117 29.7064 13.3024 29.7593 14.4605C29.8122 15.6206 29.8246 15.9912 29.8246 18.9457C29.8246 21.9001 29.8122 22.2707 29.759 23.4308Z" fill="white"/>
</svg>
