<svg width="522" height="392" viewBox="0 0 522 392" fill="none" xmlns="http://www.w3.org/2000/svg">
<path opacity="0.4" d="M440.564 150.709C447.472 150.709 453.072 145.113 453.072 138.211C453.072 131.31 447.472 125.714 440.564 125.714C433.656 125.714 428.056 131.31 428.056 138.211C428.056 145.113 433.656 150.709 440.564 150.709Z" fill="#8A4742"/>
<path opacity="0.4" d="M176.848 81.9543C186.696 81.9543 194.678 73.9782 194.678 64.1393C194.678 54.3003 186.696 46.3242 176.848 46.3242C167.001 46.3242 159.018 54.3003 159.018 64.1393C159.018 73.9782 167.001 81.9543 176.848 81.9543Z" fill="#8A4742"/>
<path opacity="0.4" d="M143.849 85.1446C150.757 85.1446 156.357 79.5495 156.357 72.6475C156.357 65.7455 150.757 60.1504 143.849 60.1504C136.941 60.1504 131.341 65.7455 131.341 72.6475C131.341 79.5495 136.941 85.1446 143.849 85.1446Z" fill="#8A4742"/>
<path d="M451.04 277.962C441.157 288.772 440.798 304.52 440.798 304.52C440.798 304.52 456.463 302.741 466.345 291.93C476.228 281.119 476.587 265.371 476.587 265.371C476.587 265.371 460.923 267.151 451.04 277.962Z" fill="#BD8E58"/>
<path d="M456.622 281.072C453.632 295.406 441.061 304.912 441.061 304.912C441.061 304.912 433.338 291.179 436.329 276.846C439.319 262.512 451.89 253.006 451.89 253.006C451.89 253.006 459.613 266.739 456.622 281.072Z" fill="#8A4742"/>
<path d="M443.786 133.169V304.038L386.781 351.09H95.1461V171.966L180.241 133.169H443.786Z" fill="#BD8E58"/>
<path opacity="0.1" d="M443.786 133.169V133.854L423.322 147.54L386.781 171.966H95.1461L180.241 133.169H443.786Z" fill="white"/>
<path opacity="0.1" d="M443.786 133.169V304.038L386.781 351.09L387.194 171.553L423.322 147.54L443.456 133.169H443.786Z" fill="white"/>
<path d="M366.953 156.694H189.329L202.547 149.265H372.737L366.953 156.694Z" fill="black"/>
<path d="M520.256 360.384C520.256 360.384 523.7 374.772 520.569 375.397C517.439 376.023 502.1 375.821 498.343 376.446C494.587 377.072 486.761 376.023 486.761 373.208C486.761 370.393 494.9 368.516 494.9 368.516C494.9 368.516 506.482 362.26 506.796 361.948C507.109 361.635 520.256 360.384 520.256 360.384Z" fill="black"/>
<path d="M517.438 275.622C517.438 275.622 516.499 286.256 516.499 287.194C516.499 288.133 517.438 302.833 516.499 303.459C515.56 304.084 517.125 308.463 517.125 310.027C517.125 311.591 522.134 337.551 520.882 347.56C519.63 357.569 522.76 356.631 521.821 357.569C520.882 358.507 520.882 358.507 520.882 360.384C520.882 362.261 510.865 363.825 510.865 363.825L499.908 294.701L505.543 274.058L517.438 275.622Z" fill="#BD8E58"/>
<path opacity="0.1" d="M517.438 275.622C517.438 275.622 516.499 286.256 516.499 287.194C516.499 288.133 517.438 302.833 516.499 303.459C515.56 304.084 517.125 308.463 517.125 310.027C517.125 311.591 522.134 337.551 520.882 347.56C519.63 357.569 522.76 356.631 521.821 357.569C520.882 358.507 520.882 358.507 520.882 360.384C520.882 362.261 510.865 363.825 510.865 363.825L499.908 294.701L505.543 274.058L517.438 275.622Z" fill="white"/>
<path d="M515.873 364.763C515.873 364.763 519.004 376.023 515.873 376.648C512.743 377.274 497.404 375.932 493.647 376.557C489.891 377.183 482.065 377.274 482.065 374.459C482.065 371.644 490.204 369.767 490.204 369.767C490.204 369.767 501.786 363.512 502.099 363.199C502.412 362.886 515.873 364.763 515.873 364.763Z" fill="black"/>
<path d="M520.256 263.11C520.256 263.11 524.012 272.181 519.63 276.873C515.247 281.564 510.239 290.948 510.239 291.573C510.239 292.199 519.004 354.441 517.752 358.507C516.499 362.573 516.812 365.076 517.126 365.701C517.439 366.327 513.995 369.767 510.239 369.767C506.482 369.767 500.847 366.952 500.221 364.45C499.595 361.948 501.16 340.366 500.847 336.3C500.534 332.234 498.969 326.291 498.343 325.04C497.717 323.789 494.273 322.538 493.647 318.785C493.021 315.031 488.012 267.176 489.578 265.613C491.143 264.049 520.256 263.11 520.256 263.11Z" fill="#BD8E58"/>
<path d="M496.465 191.172C502.343 191.172 507.109 186.41 507.109 180.537C507.109 174.664 502.343 169.903 496.465 169.903C490.587 169.903 485.822 174.664 485.822 180.537C485.822 186.41 490.587 191.172 496.465 191.172Z" fill="#BD8E58"/>
<path d="M503.039 185.854C503.039 185.854 500.848 197.427 502.413 198.678C503.978 199.929 490.517 201.806 490.517 201.806C490.517 201.806 488.952 186.48 488.639 184.916C488.326 183.352 503.039 185.854 503.039 185.854Z" fill="#BD8E58"/>
<path d="M488.639 200.868C488.639 200.868 492.395 189.921 507.735 193.048C507.735 193.048 510.552 193.987 509.613 194.925C508.674 195.863 507.735 195.863 508.987 196.802C510.239 197.74 511.804 196.802 510.865 197.74C509.926 198.678 519.317 204.308 518.691 214.943C518.065 225.577 520.882 240.59 518.691 243.093C516.5 245.595 520.256 256.542 519.63 258.731C519.004 260.921 523.387 263.736 521.508 264.674C519.63 265.613 485.822 271.243 484.882 264.674C483.943 258.106 484.569 262.798 483.63 261.234C482.691 259.67 482.378 256.855 483.004 253.414C483.63 249.974 485.196 241.529 484.569 238.401C483.943 235.273 484.569 209 486.448 205.872C488.326 202.744 488.639 200.868 488.639 200.868Z" fill="#8A4742"/>
<path d="M495.213 277.185C495.213 277.185 499.908 295.013 493.96 295.013C488.012 295.013 488.325 276.56 488.325 276.56L495.213 277.185Z" fill="#BD8E58"/>
<path d="M491.77 180.537C491.77 181.444 493.084 182.02 495.122 182.151H495.125C495.99 182.2 496.856 182.184 497.717 182.101C499.02 181.982 499.558 183.205 499.78 184.819C500.144 187.481 499.636 191.213 500.222 191.797C501.03 192.604 506.918 191.794 508.759 189.965C509.045 189.708 509.236 189.362 509.3 188.982C509.493 187.865 510.045 186.841 510.872 186.064C511.958 184.879 513.504 183.565 515.248 181.476C518.378 177.722 515.248 177.41 514.309 174.595C513.37 171.78 511.804 170.841 511.804 168.965C511.804 167.088 504.604 165.524 498.657 165.837C492.709 166.15 493.961 173.656 493.961 173.656C493.961 173.656 493.607 174.563 493.185 175.733C492.613 177.201 492.148 178.708 491.795 180.243C491.78 180.341 491.772 180.439 491.77 180.537Z" fill="black"/>
<path opacity="0.1" d="M493.021 205.559C493.021 205.559 503.665 204.934 504.604 220.572C505.543 236.211 505.23 250.912 505.23 251.224C505.23 251.537 500.847 281.251 496.778 281.251C492.708 281.251 489.578 280.625 488.639 279.062C487.699 277.498 491.143 254.978 491.143 254.978C491.143 254.978 492.708 231.207 490.204 223.7C487.699 216.194 487.386 206.497 493.021 205.559Z" fill="white"/>
<path d="M491.456 203.996C491.456 203.996 502.1 203.37 503.039 219.009C503.978 234.648 503.665 249.348 503.665 249.661C503.665 249.974 499.282 279.688 495.213 279.688C491.143 279.688 488.013 279.062 487.074 277.498C486.135 275.934 489.578 253.414 489.578 253.414C489.578 253.414 491.143 229.643 488.639 222.137C486.135 214.63 485.821 204.934 491.456 203.996Z" fill="#8A4742"/>
<path d="M314.964 51.1065C314.964 51.1065 310.326 37.9754 306.976 42.0949C303.626 46.2145 312.129 53.1663 312.129 53.1663L314.964 51.1065Z" fill="#BD8E58"/>
<path d="M336.868 38.2324L334.078 39.2657C334.078 39.2657 332.745 45.1842 333.26 46.2141C333.776 47.244 334.033 46.4716 333.26 48.5314C332.487 50.5912 330.168 55.9981 329.91 56.7705C329.653 57.543 314.964 51.8785 314.964 49.0463C314.964 49.0463 311.872 52.651 310.326 53.4234C310.326 53.4234 327.333 65.7821 329.653 67.327C331.972 68.8718 333.26 68.0994 335.322 66.2971C337.383 64.4948 346.145 49.5613 346.145 49.5613L336.868 38.2324Z" fill="#BD8E58"/>
<path d="M329.395 129.636C329.395 129.636 329.653 132.468 330.168 132.725C330.684 132.983 334.549 139.42 330.168 140.707C325.787 141.994 323.21 141.48 322.18 141.994C321.149 142.509 303.11 143.539 302.853 140.707C302.595 137.875 311.614 137.36 311.614 137.36C311.614 137.36 319.86 131.953 321.149 129.121C322.437 126.289 329.395 129.636 329.395 129.636Z" fill="black"/>
<path d="M381.707 134.785C381.707 134.785 387.891 145.342 386.345 146.629C384.799 147.916 369.741 152.608 367.534 152.808C364.699 153.066 362.637 150.749 364.957 149.461C367.276 148.174 372.172 142.767 372.172 140.965V136.33L381.707 134.785Z" fill="black"/>
<path d="M387.633 65.7822C387.633 65.7822 393.045 72.4766 384.541 83.2905L370.368 101.314C370.368 101.314 379.13 115.217 379.387 122.426C379.645 129.636 381.449 128.091 381.964 131.181C382.48 134.27 384.799 132.725 382.995 135.043C381.191 137.36 374.491 139.42 372.429 137.617C371.72 136.969 371.167 136.17 370.81 135.278C370.453 134.387 370.302 133.426 370.368 132.468C370.368 131.438 366.76 125.516 366.503 123.714C366.245 121.912 356.71 107.236 356.71 107.236C356.71 107.236 353.618 98.4814 357.226 93.5894C360.833 88.6974 363.217 81.7592 363.217 81.7592C363.217 81.7592 352.587 94.6193 345.114 97.709C345.114 97.709 342.279 98.2239 342.795 99.5113C343.31 100.799 342.795 101.571 342.022 102.858C341.249 104.146 335.837 119.079 334.033 122.941C332.229 126.804 333.002 129.121 330.941 130.408C328.879 131.696 319.602 130.666 319.602 129.378C319.602 128.091 320.891 124.744 321.664 122.941C322.437 121.139 328.622 100.284 328.106 96.6791C327.591 93.0745 328.364 88.1825 332.229 86.1227C336.095 84.0629 355.679 67.3271 356.71 67.3271C357.741 67.3271 387.633 65.7822 387.633 65.7822Z" fill="black"/>
<path d="M335.838 25.3588C341.815 25.3588 346.661 20.5172 346.661 14.5449C346.661 8.57251 341.815 3.73096 335.838 3.73096C329.86 3.73096 325.014 8.57251 325.014 14.5449C325.014 20.5172 329.86 25.3588 335.838 25.3588Z" fill="#BD8E58"/>
<path d="M344.598 15.5747C344.598 15.5747 347.948 21.4966 352.072 22.2691C356.195 23.0415 341.248 34.8853 341.248 34.8853C341.248 34.8853 337.641 23.5564 334.548 23.0415C331.456 22.5265 344.598 15.5747 344.598 15.5747Z" fill="#BD8E58"/>
<path d="M334.033 39.7772C334.033 43.1243 344.083 52.6508 344.083 52.6508L353.618 60.6325C353.618 60.6325 353.875 63.4647 354.906 63.7222C355.937 63.9797 357.225 63.9797 356.195 65.5245C355.164 67.0694 352.587 70.4165 354.906 70.9315C355.605 71.0377 356.31 71.1048 357.017 71.1323C357.635 71.1684 358.362 71.2018 359.179 71.2327C361.086 71.2997 363.472 71.3434 366.057 71.3254C366.791 71.3228 367.538 71.3143 368.299 71.2997C378.042 71.1066 389.329 69.9865 388.406 66.297C386.86 60.1176 387.891 58.0578 384.541 54.7106C381.191 51.3635 375.779 39.7771 375.779 39.7771C375.779 39.7771 364.956 21.4965 355.937 21.4965L354.064 21.0047C353.193 20.7756 352.273 20.8258 351.432 21.1484C350.592 21.4709 349.874 22.0494 349.381 22.8019C347.572 25.5543 344.72 29.6893 343.052 31.023C340.475 33.0828 340.073 31.6049 340.073 31.6049C340.073 31.6049 334.033 36.43 334.033 39.7772Z" fill="#BD8E58"/>
<path d="M356.968 78.9136C356.968 78.9136 349.495 90.4999 354.133 92.5597C358.772 94.6195 361.349 80.4584 361.349 80.4584L356.968 78.9136Z" fill="#BD8E58"/>
<path d="M342.913 13.3235C342.497 13.2712 342.366 12.7475 342.296 12.335C341.921 10.1264 340.274 8.03193 338.061 7.67539C337.215 7.56293 336.354 7.6322 335.537 7.87858C334.367 8.1995 333.268 8.73987 332.299 9.47092C331.825 9.90372 331.277 10.2476 330.681 10.4861C330.275 10.6052 328.551 11.3712 328.148 11.5008C327.262 11.7858 326.529 12.7122 325.617 12.5288C324.744 12.3533 324.412 11.3002 324.272 10.4217C323.953 8.42043 325.099 5.43432 326.239 3.758C327.104 2.48591 328.568 1.7538 330.031 1.27752C331.746 0.757504 333.508 0.407741 335.291 0.233308C337.698 -0.0507659 340.192 -0.201482 342.499 0.542017C344.806 1.28552 346.907 3.10428 347.337 5.4878C347.427 5.98431 347.444 6.49287 347.554 6.9853C347.822 8.18658 348.617 9.19633 349.081 10.3365C349.416 11.1738 349.572 12.0719 349.538 12.973C349.504 13.874 349.281 14.758 348.884 15.5678C348.242 16.8589 347.124 18.0996 347.366 19.5213L345.377 17.9546C345.09 17.7915 344.867 17.5348 344.746 17.2274C344.625 16.9201 344.614 16.5806 344.713 16.2657L345.002 13.7778C345.102 13.3271 345.057 12.8563 344.873 12.4327C343.989 10.8901 343.605 13.4108 342.913 13.3235Z" fill="black"/>
<path opacity="0.1" d="M361.606 61.1476L359.179 71.2328C361.627 71.3204 364.866 71.3667 368.298 71.2998C369.164 68.7044 369.992 65.9984 370.625 63.4649C372.945 54.1958 369.079 40.0347 367.018 33.3404C364.956 26.6461 359.802 24.8438 359.802 24.8438C357.689 25.5862 355.694 26.6266 353.875 27.9334C350.525 30.2507 361.606 61.1476 361.606 61.1476Z" fill="white"/>
<path opacity="0.1" d="M359.545 60.6331L357.017 71.1328C357.636 71.1689 358.362 71.2024 359.179 71.2332C361.086 71.3002 363.473 71.344 366.057 71.3259C366.987 68.5684 367.887 65.659 368.565 62.9503C370.884 53.6813 367.018 39.5202 364.957 32.8259C362.895 26.1315 358.386 33.4695 358.386 33.4695C358.386 33.4695 360.189 29.0925 356.839 31.4097C353.489 33.727 359.545 60.6331 359.545 60.6331Z" fill="white"/>
<path d="M358.772 24.3291C358.772 24.3291 363.926 26.1314 365.987 32.8257C368.049 39.5201 371.914 53.6811 369.595 62.9502C367.276 72.2192 362.379 83.8056 362.379 83.8056C362.379 83.8056 357.483 80.2009 355.679 80.9734L360.576 60.6329C360.576 60.6329 349.495 29.7361 352.845 27.4188C354.663 26.112 356.659 25.0715 358.772 24.3291Z" fill="#BD8E58"/>
<path d="M362.614 153.476L291.318 5.0332L172.107 62.1917L215.95 153.476H362.614Z" fill="#F2F2F2"/>
<path d="M267.192 63.3003L203.874 93.6592L205.76 97.5859L269.078 67.227L267.192 63.3003Z" fill="#BD8E58"/>
<path d="M283.955 98.2041L220.638 128.563L222.524 132.49L285.841 102.131L283.955 98.2041Z" fill="#BD8E58"/>
<path d="M295.471 42.7629L279.751 50.3003L287.294 66.0071L303.015 58.4697L295.471 42.7629Z" fill="#BD8E58"/>
<path d="M312.235 77.6667L296.515 85.2041L304.059 100.911L319.779 93.3735L312.235 77.6667Z" fill="#BD8E58"/>
<path d="M296.554 31.8833L290.08 50.2879L281.352 47.2229L280.158 50.618L292.272 54.8717L299.951 33.0766L296.554 31.8833Z" fill="black"/>
<path d="M313.319 66.7871L306.844 85.1917L298.118 82.1273L296.923 85.5218L309.037 89.7755L316.717 67.9804L313.319 66.7871Z" fill="black"/>
<path d="M6.88082 324.324L39.0916 317.449L32.2111 285.266L0.000349576 292.141L6.88082 324.324Z" fill="#F2F2F2"/>
<path d="M38.1956 276.667C38.1956 276.667 26.3646 285.111 30.3083 288.488C34.2519 291.865 42.1393 278.356 42.1393 278.356L38.1956 276.667Z" fill="#BD8E58"/>
<path d="M92.8436 289.614C92.8436 289.614 90.5901 317.759 90.0267 321.699C89.4633 325.64 88.8999 361.103 87.7731 365.043C86.6463 368.983 85.5196 378.553 85.5196 378.553H78.759C78.759 378.553 79.3223 361.103 77.6322 354.348C75.942 347.593 76.5054 329.017 76.5054 329.017C76.5054 329.017 73.1251 295.806 74.8153 291.303C76.5055 286.799 92.8436 289.614 92.8436 289.614Z" fill="#BD8E58"/>
<path d="M83.8295 376.864C83.8295 376.864 86.6464 378.552 86.6464 379.678C86.6464 380.804 86.083 383.619 86.6464 384.744C87.2098 385.87 91.1535 390.373 88.9 391.499C86.6464 392.625 76.5055 391.499 76.5055 391.499C76.5055 391.499 77.0689 383.619 77.6323 383.056C78.1956 382.493 77.0689 376.864 77.0689 376.864H83.8295Z" fill="black"/>
<path d="M49.776 288.924C49.776 288.924 49.0602 317.15 49.2065 321.127C49.3529 325.105 46.1876 360.431 46.8941 364.468C47.6007 368.505 47.716 378.14 47.716 378.14L54.4392 378.849C54.4392 378.849 55.7122 361.436 58.1026 354.895C60.4931 348.355 61.8843 329.823 61.8843 329.823C61.8843 329.823 68.735 297.15 67.5273 292.494C66.3195 287.838 49.776 288.924 49.776 288.924Z" fill="#BD8E58"/>
<path d="M49.5746 376.638C49.5746 376.638 46.5959 378.022 46.4776 379.141C46.3593 380.261 46.6239 383.119 45.9454 384.179C45.2668 385.24 40.8718 389.305 42.9947 390.661C45.1175 392.016 55.3206 391.96 55.3206 391.96C55.3206 391.96 55.5883 384.064 55.0871 383.445C54.586 382.826 56.2979 377.347 56.2979 377.347L49.5746 376.638Z" fill="black"/>
<path d="M84.9566 247.396C84.9566 247.396 89.4637 247.959 91.1538 257.528C92.844 267.098 99.0412 291.303 93.9707 292.991C88.9003 294.68 73.6889 298.057 73.1255 296.932C72.5621 295.806 71.4354 292.991 71.4354 292.991C71.4354 292.991 73.1255 298.057 70.872 298.057C68.6185 298.057 46.6465 294.68 47.2099 292.991C47.7732 291.303 48.9 278.919 48.9 278.919C48.9 278.919 52.2803 258.091 55.6606 254.714C56.6389 253.775 57.3984 252.633 57.8853 251.369C58.3721 250.104 58.5743 248.748 58.4775 247.396H84.9566Z" fill="black"/>
<path d="M93.4069 242.893C93.4069 242.893 86.0829 241.204 84.9561 243.456C83.8294 245.707 87.773 249.085 89.4632 249.085C91.1533 249.085 93.9703 247.396 93.9703 247.396L93.4069 242.893Z" fill="#BD8E58"/>
<path d="M78.196 195.046C83.7966 195.046 88.3369 190.509 88.3369 184.914C88.3369 179.318 83.7966 174.781 78.196 174.781C72.5953 174.781 68.0551 179.318 68.0551 184.914C68.0551 190.509 72.5953 195.046 78.196 195.046Z" fill="#BD8E58"/>
<path d="M76.5052 192.231C76.5052 192.231 74.815 200.112 75.9418 200.112C77.0685 200.112 67.491 205.178 67.491 205.178L60.167 204.052L57.9135 200.675C57.9135 200.675 69.7445 192.794 69.7445 188.291C69.7445 183.788 76.5052 192.231 76.5052 192.231Z" fill="#BD8E58"/>
<path d="M71.4347 200.112C71.4347 200.112 73.1248 198.986 73.6882 198.986H78.1953C78.7587 198.986 86.0827 200.675 86.0827 200.675L90.5897 226.006C90.5897 226.006 82.7024 238.953 88.3362 249.085C88.3362 249.085 86.6461 247.959 78.7587 248.522C70.8713 249.085 56.7867 250.774 56.2233 250.774C55.6599 250.774 55.6599 246.27 56.2233 245.145C56.7867 244.019 55.6599 244.582 55.6599 241.767C55.6599 238.953 53.9698 233.886 53.9698 233.886L46.0824 205.178C46.0824 205.178 56.2233 199.549 57.9135 200.112C59.6036 200.675 64.6741 202.364 65.8008 201.801C66.9276 201.238 71.4347 200.112 71.4347 200.112Z" fill="#8A4742"/>
<path d="M84.3929 201.238L86.0831 200.675C86.0831 200.675 89.4634 200.112 93.4071 203.489C97.3508 206.867 111.999 216.999 111.999 216.999C111.999 216.999 117.633 221.502 115.942 226.568C114.252 231.635 111.435 244.018 102.985 243.456C102.985 243.456 97.9142 250.21 95.0973 249.085C92.2803 247.959 90.0268 243.456 91.7169 242.893C93.4071 242.33 97.9142 236.701 97.9142 236.701L92.2803 226.006H90.5902L84.393 222.628L84.3929 201.238Z" fill="#8A4742"/>
<path d="M50.59 204.615L46.083 205.178C46.083 205.178 42.1393 206.867 42.7027 214.185C43.266 221.502 39.3223 254.714 41.0125 258.654C41.0125 258.654 35.3787 277.793 36.5054 278.356C37.6322 278.919 44.3928 282.296 43.8294 280.044C43.2661 277.793 50.0267 262.031 50.0267 262.031C50.0267 262.031 57.914 253.588 54.5337 241.767V232.198L50.59 204.615Z" fill="#8A4742"/>
<path d="M86.6353 194.71L79.4732 196.269L78.5529 192.745L78.9067 196.392L67.3528 198.907L66.8446 196.962L67.04 198.975L59.6397 200.586L58.0566 185.402C56.4291 179.172 62.369 172.531 68.6048 170.905L71.3712 170.184C75.9511 168.989 84.2763 170.075 85.4716 174.651C83.3794 182.63 79.8129 191.376 86.6353 194.71Z" fill="black"/>
</svg>
