<svg width="37" height="36" viewBox="0 0 37 36" fill="none" xmlns="http://www.w3.org/2000/svg">
<path d="M31.4979 4.4569C28.0162 1.58267 23.3999 0 18.5 0C13.6001 0 8.9838 1.58267 5.50207 4.4569C1.95399 7.38511 0 11.2991 0 15.4776C0 19.4097 1.7595 23.1555 4.95443 26.0249C7.84026 28.6169 11.672 30.2903 15.8327 30.7927V34.8976C15.8327 35.5065 16.3179 36 16.9166 36C18.7916 36 23.8671 33.66 28.1523 30.3023C30.712 28.2965 32.7634 26.1426 34.2491 23.8996C36.0744 21.1445 37 18.3108 37 15.4776C37 11.2991 35.046 7.38511 31.4979 4.4569ZM11.8916 20.1242H8.2109C7.63898 20.1242 7.22374 19.7818 7.22374 19.3095V11.6342C7.22374 11.1536 7.6579 10.8309 8.30377 10.8309C8.94965 10.8309 9.38352 11.1536 9.38352 11.6342V18.117H11.8916C12.3495 18.117 12.6696 18.5295 12.6696 19.1206C12.6696 19.7022 12.3425 20.1242 11.8916 20.1242ZM15.3643 19.3095C15.3643 19.7818 14.9101 20.1242 14.2846 20.1242C13.6486 20.1242 13.2048 19.7892 13.2048 19.3095V11.6342C13.2048 11.1536 13.6387 10.8309 14.2846 10.8309C14.9305 10.8309 15.3643 11.1536 15.3643 11.6342V19.3095ZM22.7504 19.3095C22.7504 19.7818 22.2962 20.1242 21.6704 20.1242C21.1383 20.1242 20.7493 19.9038 20.5147 19.4686L18.6284 15.8821V19.3095C18.6284 19.7818 18.1742 20.1242 17.5487 20.1242C16.9127 20.1242 16.4687 19.7892 16.4687 19.3095V11.6459C16.4687 11.1585 16.9028 10.8309 17.5487 10.8309C18.2482 10.8309 18.5652 11.0531 18.9627 11.8225L20.5906 15.022V11.6342C20.5906 11.1536 21.0245 10.8309 21.6704 10.8309C22.3162 10.8309 22.7504 11.1536 22.7504 11.6342V19.3095ZM27.4539 14.5388C27.9106 14.5388 28.255 14.945 28.255 15.4836C28.255 15.93 27.9744 16.4046 27.4539 16.4046H26.0142V18.1167H28.9748C29.4395 18.1167 29.7763 18.5439 29.7763 19.1321C29.7763 19.7071 29.4395 20.1242 28.9748 20.1242H24.8413C24.2694 20.1242 23.8544 19.7815 23.8544 19.3095V11.6459C23.8544 11.1737 24.2694 10.8309 24.8413 10.8309H28.9748C29.4395 10.8309 29.7763 11.248 29.7763 11.8231C29.7763 12.4116 29.4395 12.8385 28.9748 12.8385H26.0142V14.5388H27.4539Z" fill="white"/>
</svg>
