<svg width="1440" height="988" viewBox="0 0 1440 988" fill="none" xmlns="http://www.w3.org/2000/svg">
<path d="M1192 455C1192 456.105 1191.1 457 1190 457C1188.9 457 1188 456.105 1188 455C1188 453.895 1188.9 453 1190 453C1191.1 453 1192 453.895 1192 455Z" fill="#8A4742"/>
<path d="M1208 455C1208 456.105 1207.1 457 1206 457C1204.9 457 1204 456.105 1204 455C1204 453.895 1204.9 453 1206 453C1207.1 453 1208 453.895 1208 455Z" fill="#8A4742"/>
<path d="M1224 455C1224 456.105 1223.1 457 1222 457C1220.9 457 1220 456.105 1220 455C1220 453.895 1220.9 453 1222 453C1223.1 453 1224 453.895 1224 455Z" fill="#8A4742"/>
<path d="M1240 455C1240 456.105 1239.1 457 1238 457C1236.9 457 1236 456.105 1236 455C1236 453.895 1236.9 453 1238 453C1239.1 453 1240 453.895 1240 455Z" fill="#8A4742"/>
<path d="M1256 455C1256 456.105 1255.1 457 1254 457C1252.9 457 1252 456.105 1252 455C1252 453.895 1252.9 453 1254 453C1255.1 453 1256 453.895 1256 455Z" fill="#8A4742"/>
<path d="M1192 471C1192 472.105 1191.1 473 1190 473C1188.9 473 1188 472.105 1188 471C1188 469.895 1188.9 469 1190 469C1191.1 469 1192 469.895 1192 471Z" fill="#8A4742"/>
<path d="M1208 471C1208 472.105 1207.1 473 1206 473C1204.9 473 1204 472.105 1204 471C1204 469.895 1204.9 469 1206 469C1207.1 469 1208 469.895 1208 471Z" fill="#8A4742"/>
<path d="M1224 471C1224 472.105 1223.1 473 1222 473C1220.9 473 1220 472.105 1220 471C1220 469.895 1220.9 469 1222 469C1223.1 469 1224 469.895 1224 471Z" fill="#8A4742"/>
<path d="M1240 471C1240 472.105 1239.1 473 1238 473C1236.9 473 1236 472.105 1236 471C1236 469.895 1236.9 469 1238 469C1239.1 469 1240 469.895 1240 471Z" fill="#8A4742"/>
<path d="M1256 471C1256 472.105 1255.1 473 1254 473C1252.9 473 1252 472.105 1252 471C1252 469.895 1252.9 469 1254 469C1255.1 469 1256 469.895 1256 471Z" fill="#8A4742"/>
<path d="M1192 487C1192 488.105 1191.1 489 1190 489C1188.9 489 1188 488.105 1188 487C1188 485.895 1188.9 485 1190 485C1191.1 485 1192 485.895 1192 487Z" fill="#8A4742"/>
<path d="M1208 487C1208 488.105 1207.1 489 1206 489C1204.9 489 1204 488.105 1204 487C1204 485.895 1204.9 485 1206 485C1207.1 485 1208 485.895 1208 487Z" fill="#8A4742"/>
<path d="M1224 487C1224 488.105 1223.1 489 1222 489C1220.9 489 1220 488.105 1220 487C1220 485.895 1220.9 485 1222 485C1223.1 485 1224 485.895 1224 487Z" fill="#8A4742"/>
<path d="M1240 487C1240 488.105 1239.1 489 1238 489C1236.9 489 1236 488.105 1236 487C1236 485.895 1236.9 485 1238 485C1239.1 485 1240 485.895 1240 487Z" fill="#8A4742"/>
<path d="M1256 487C1256 488.105 1255.1 489 1254 489C1252.9 489 1252 488.105 1252 487C1252 485.895 1252.9 485 1254 485C1255.1 485 1256 485.895 1256 487Z" fill="#8A4742"/>
<path d="M1192 503C1192 504.105 1191.1 505 1190 505C1188.9 505 1188 504.105 1188 503C1188 501.895 1188.9 501 1190 501C1191.1 501 1192 501.895 1192 503Z" fill="#8A4742"/>
<path d="M1208 503C1208 504.105 1207.1 505 1206 505C1204.9 505 1204 504.105 1204 503C1204 501.895 1204.9 501 1206 501C1207.1 501 1208 501.895 1208 503Z" fill="#8A4742"/>
<path d="M1224 503C1224 504.105 1223.1 505 1222 505C1220.9 505 1220 504.105 1220 503C1220 501.895 1220.9 501 1222 501C1223.1 501 1224 501.895 1224 503Z" fill="#8A4742"/>
<path d="M1240 503C1240 504.105 1239.1 505 1238 505C1236.9 505 1236 504.105 1236 503C1236 501.895 1236.9 501 1238 501C1239.1 501 1240 501.895 1240 503Z" fill="#8A4742"/>
<path d="M1256 503C1256 504.105 1255.1 505 1254 505C1252.9 505 1252 504.105 1252 503C1252 501.895 1252.9 501 1254 501C1255.1 501 1256 501.895 1256 503Z" fill="#8A4742"/>
<path d="M1192 519C1192 520.105 1191.1 521 1190 521C1188.9 521 1188 520.105 1188 519C1188 517.895 1188.9 517 1190 517C1191.1 517 1192 517.895 1192 519Z" fill="#8A4742"/>
<path d="M1208 519C1208 520.105 1207.1 521 1206 521C1204.9 521 1204 520.105 1204 519C1204 517.895 1204.9 517 1206 517C1207.1 517 1208 517.895 1208 519Z" fill="#8A4742"/>
<path d="M1224 519C1224 520.105 1223.1 521 1222 521C1220.9 521 1220 520.105 1220 519C1220 517.895 1220.9 517 1222 517C1223.1 517 1224 517.895 1224 519Z" fill="#8A4742"/>
<path d="M1240 519C1240 520.105 1239.1 521 1238 521C1236.9 521 1236 520.105 1236 519C1236 517.895 1236.9 517 1238 517C1239.1 517 1240 517.895 1240 519Z" fill="#8A4742"/>
<path d="M1256 519C1256 520.105 1255.1 521 1254 521C1252.9 521 1252 520.105 1252 519C1252 517.895 1252.9 517 1254 517C1255.1 517 1256 517.895 1256 519Z" fill="#8A4742"/>
<path d="M142 234C142 235.105 141.105 236 140 236C138.895 236 138 235.105 138 234C138 232.895 138.895 232 140 232C141.105 232 142 232.895 142 234Z" fill="#8A4742"/>
<path d="M158 234C158 235.105 157.105 236 156 236C154.895 236 154 235.105 154 234C154 232.895 154.895 232 156 232C157.105 232 158 232.895 158 234Z" fill="#8A4742"/>
<path d="M174 234C174 235.105 173.105 236 172 236C170.895 236 170 235.105 170 234C170 232.895 170.895 232 172 232C173.105 232 174 232.895 174 234Z" fill="#8A4742"/>
<path d="M190 234C190 235.105 189.105 236 188 236C186.895 236 186 235.105 186 234C186 232.895 186.895 232 188 232C189.105 232 190 232.895 190 234Z" fill="#8A4742"/>
<path d="M206 234C206 235.105 205.105 236 204 236C202.895 236 202 235.105 202 234C202 232.895 202.895 232 204 232C205.105 232 206 232.895 206 234Z" fill="#8A4742"/>
<path d="M142 250C142 251.105 141.105 252 140 252C138.895 252 138 251.105 138 250C138 248.895 138.895 248 140 248C141.105 248 142 248.895 142 250Z" fill="#8A4742"/>
<path d="M158 250C158 251.105 157.105 252 156 252C154.895 252 154 251.105 154 250C154 248.895 154.895 248 156 248C157.105 248 158 248.895 158 250Z" fill="#8A4742"/>
<path d="M174 250C174 251.105 173.105 252 172 252C170.895 252 170 251.105 170 250C170 248.895 170.895 248 172 248C173.105 248 174 248.895 174 250Z" fill="#8A4742"/>
<path d="M190 250C190 251.105 189.105 252 188 252C186.895 252 186 251.105 186 250C186 248.895 186.895 248 188 248C189.105 248 190 248.895 190 250Z" fill="#8A4742"/>
<path d="M206 250C206 251.105 205.105 252 204 252C202.895 252 202 251.105 202 250C202 248.895 202.895 248 204 248C205.105 248 206 248.895 206 250Z" fill="#8A4742"/>
<path d="M142 266C142 267.105 141.105 268 140 268C138.895 268 138 267.105 138 266C138 264.895 138.895 264 140 264C141.105 264 142 264.895 142 266Z" fill="#8A4742"/>
<path d="M158 266C158 267.105 157.105 268 156 268C154.895 268 154 267.105 154 266C154 264.895 154.895 264 156 264C157.105 264 158 264.895 158 266Z" fill="#8A4742"/>
<path d="M174 266C174 267.105 173.105 268 172 268C170.895 268 170 267.105 170 266C170 264.895 170.895 264 172 264C173.105 264 174 264.895 174 266Z" fill="#8A4742"/>
<path d="M190 266C190 267.105 189.105 268 188 268C186.895 268 186 267.105 186 266C186 264.895 186.895 264 188 264C189.105 264 190 264.895 190 266Z" fill="#8A4742"/>
<path d="M206 266C206 267.105 205.105 268 204 268C202.895 268 202 267.105 202 266C202 264.895 202.895 264 204 264C205.105 264 206 264.895 206 266Z" fill="#8A4742"/>
<path d="M142 282C142 283.105 141.105 284 140 284C138.895 284 138 283.105 138 282C138 280.895 138.895 280 140 280C141.105 280 142 280.895 142 282Z" fill="#8A4742"/>
<path d="M158 282C158 283.105 157.105 284 156 284C154.895 284 154 283.105 154 282C154 280.895 154.895 280 156 280C157.105 280 158 280.895 158 282Z" fill="#8A4742"/>
<path d="M174 282C174 283.105 173.105 284 172 284C170.895 284 170 283.105 170 282C170 280.895 170.895 280 172 280C173.105 280 174 280.895 174 282Z" fill="#8A4742"/>
<path d="M190 282C190 283.105 189.105 284 188 284C186.895 284 186 283.105 186 282C186 280.895 186.895 280 188 280C189.105 280 190 280.895 190 282Z" fill="#8A4742"/>
<path d="M206 282C206 283.105 205.105 284 204 284C202.895 284 202 283.105 202 282C202 280.895 202.895 280 204 280C205.105 280 206 280.895 206 282Z" fill="#8A4742"/>
<path d="M142 298C142 299.105 141.105 300 140 300C138.895 300 138 299.105 138 298C138 296.895 138.895 296 140 296C141.105 296 142 296.895 142 298Z" fill="#8A4742"/>
<path d="M158 298C158 299.105 157.105 300 156 300C154.895 300 154 299.105 154 298C154 296.895 154.895 296 156 296C157.105 296 158 296.895 158 298Z" fill="#8A4742"/>
<path d="M174 298C174 299.105 173.105 300 172 300C170.895 300 170 299.105 170 298C170 296.895 170.895 296 172 296C173.105 296 174 296.895 174 298Z" fill="#8A4742"/>
<path d="M190 298C190 299.105 189.105 300 188 300C186.895 300 186 299.105 186 298C186 296.895 186.895 296 188 296C189.105 296 190 296.895 190 298Z" fill="#8A4742"/>
<path d="M206 298C206 299.105 205.105 300 204 300C202.895 300 202 299.105 202 298C202 296.895 202.895 296 204 296C205.105 296 206 296.895 206 298Z" fill="#8A4742"/>
</svg>
