<svg width="37" height="38" viewBox="0 0 37 38" fill="none" xmlns="http://www.w3.org/2000/svg">
<path d="M18.5 0C8.28429 0 0 8.50819 0 19C0 29.4918 8.28429 38 18.5 38C28.7157 38 37 29.4918 37 19C37 8.50819 28.7157 0 18.5 0ZM26.9469 14.8142C26.9551 15.0012 26.959 15.189 26.959 15.3778C26.959 21.1405 22.688 27.7856 14.8774 27.7859H14.8777H14.8774C12.4794 27.7859 10.2479 27.064 8.3687 25.827C8.70095 25.8673 9.03913 25.8873 9.38155 25.8873C11.3711 25.8873 13.202 25.1903 14.6555 24.0205C12.7967 23.9851 11.2294 22.7243 10.6885 20.9914C10.9474 21.0425 11.2136 21.0703 11.4866 21.0703C11.8741 21.0703 12.2496 21.0167 12.6064 20.9166C10.6634 20.5171 9.19975 18.7536 9.19975 16.6418C9.19975 16.6221 9.19975 16.6044 9.20032 16.5862C9.77251 16.9129 10.4269 17.1095 11.1235 17.1315C9.98338 16.3502 9.23391 15.0145 9.23391 13.5014C9.23391 12.7024 9.44421 11.9539 9.80893 11.3094C11.9029 13.9482 15.0324 15.6836 18.5615 15.866C18.4887 15.5465 18.4512 15.2137 18.4512 14.8716C18.4512 12.4641 20.3529 10.5109 22.6979 10.5109C23.9194 10.5109 25.0225 11.0412 25.7974 11.8889C26.7648 11.6929 27.6732 11.33 28.4938 10.8304C28.1763 11.8483 27.5033 12.7024 26.6265 13.2425C27.4855 13.137 28.3041 12.903 29.0649 12.5557C28.4967 13.4304 27.776 14.1987 26.9469 14.8142Z" fill="white"/>
</svg>
