<svg width="68" height="68" viewBox="0 0 68 68" fill="none" xmlns="http://www.w3.org/2000/svg">
<path d="M4 2C4 3.10457 3.10457 4 2 4C0.89543 4 0 3.10457 0 2C0 0.89543 0.89543 0 2 0C3.10457 0 4 0.89543 4 2Z" fill="#18191F"/>
<path d="M20 2C20 3.10457 19.1046 4 18 4C16.8954 4 16 3.10457 16 2C16 0.89543 16.8954 0 18 0C19.1046 0 20 0.89543 20 2Z" fill="#18191F"/>
<path d="M36 2C36 3.10457 35.1046 4 34 4C32.8954 4 32 3.10457 32 2C32 0.89543 32.8954 0 34 0C35.1046 0 36 0.89543 36 2Z" fill="#18191F"/>
<path d="M52 2C52 3.10457 51.1046 4 50 4C48.8954 4 48 3.10457 48 2C48 0.89543 48.8954 0 50 0C51.1046 0 52 0.89543 52 2Z" fill="#18191F"/>
<path d="M68 2C68 3.10457 67.1046 4 66 4C64.8954 4 64 3.10457 64 2C64 0.89543 64.8954 0 66 0C67.1046 0 68 0.89543 68 2Z" fill="#18191F"/>
<path d="M4 18C4 19.1046 3.10457 20 2 20C0.89543 20 0 19.1046 0 18C0 16.8954 0.89543 16 2 16C3.10457 16 4 16.8954 4 18Z" fill="#18191F"/>
<path d="M20 18C20 19.1046 19.1046 20 18 20C16.8954 20 16 19.1046 16 18C16 16.8954 16.8954 16 18 16C19.1046 16 20 16.8954 20 18Z" fill="#18191F"/>
<path d="M36 18C36 19.1046 35.1046 20 34 20C32.8954 20 32 19.1046 32 18C32 16.8954 32.8954 16 34 16C35.1046 16 36 16.8954 36 18Z" fill="#18191F"/>
<path d="M52 18C52 19.1046 51.1046 20 50 20C48.8954 20 48 19.1046 48 18C48 16.8954 48.8954 16 50 16C51.1046 16 52 16.8954 52 18Z" fill="#18191F"/>
<path d="M68 18C68 19.1046 67.1046 20 66 20C64.8954 20 64 19.1046 64 18C64 16.8954 64.8954 16 66 16C67.1046 16 68 16.8954 68 18Z" fill="#18191F"/>
<path d="M4 34C4 35.1046 3.10457 36 2 36C0.89543 36 0 35.1046 0 34C0 32.8954 0.89543 32 2 32C3.10457 32 4 32.8954 4 34Z" fill="#18191F"/>
<path d="M20 34C20 35.1046 19.1046 36 18 36C16.8954 36 16 35.1046 16 34C16 32.8954 16.8954 32 18 32C19.1046 32 20 32.8954 20 34Z" fill="#18191F"/>
<path d="M36 34C36 35.1046 35.1046 36 34 36C32.8954 36 32 35.1046 32 34C32 32.8954 32.8954 32 34 32C35.1046 32 36 32.8954 36 34Z" fill="#18191F"/>
<path d="M52 34C52 35.1046 51.1046 36 50 36C48.8954 36 48 35.1046 48 34C48 32.8954 48.8954 32 50 32C51.1046 32 52 32.8954 52 34Z" fill="#18191F"/>
<path d="M68 34C68 35.1046 67.1046 36 66 36C64.8954 36 64 35.1046 64 34C64 32.8954 64.8954 32 66 32C67.1046 32 68 32.8954 68 34Z" fill="#18191F"/>
<path d="M4 50C4 51.1046 3.10457 52 2 52C0.89543 52 0 51.1046 0 50C0 48.8954 0.89543 48 2 48C3.10457 48 4 48.8954 4 50Z" fill="#18191F"/>
<path d="M20 50C20 51.1046 19.1046 52 18 52C16.8954 52 16 51.1046 16 50C16 48.8954 16.8954 48 18 48C19.1046 48 20 48.8954 20 50Z" fill="#18191F"/>
<path d="M36 50C36 51.1046 35.1046 52 34 52C32.8954 52 32 51.1046 32 50C32 48.8954 32.8954 48 34 48C35.1046 48 36 48.8954 36 50Z" fill="#18191F"/>
<path d="M52 50C52 51.1046 51.1046 52 50 52C48.8954 52 48 51.1046 48 50C48 48.8954 48.8954 48 50 48C51.1046 48 52 48.8954 52 50Z" fill="#18191F"/>
<path d="M68 50C68 51.1046 67.1046 52 66 52C64.8954 52 64 51.1046 64 50C64 48.8954 64.8954 48 66 48C67.1046 48 68 48.8954 68 50Z" fill="#18191F"/>
<path d="M4 66C4 67.1046 3.10457 68 2 68C0.89543 68 0 67.1046 0 66C0 64.8954 0.89543 64 2 64C3.10457 64 4 64.8954 4 66Z" fill="#18191F"/>
<path d="M20 66C20 67.1046 19.1046 68 18 68C16.8954 68 16 67.1046 16 66C16 64.8954 16.8954 64 18 64C19.1046 64 20 64.8954 20 66Z" fill="#18191F"/>
<path d="M36 66C36 67.1046 35.1046 68 34 68C32.8954 68 32 67.1046 32 66C32 64.8954 32.8954 64 34 64C35.1046 64 36 64.8954 36 66Z" fill="#18191F"/>
<path d="M52 66C52 67.1046 51.1046 68 50 68C48.8954 68 48 67.1046 48 66C48 64.8954 48.8954 64 50 64C51.1046 64 52 64.8954 52 66Z" fill="#18191F"/>
<path d="M68 66C68 67.1046 67.1046 68 66 68C64.8954 68 64 67.1046 64 66C64 64.8954 64.8954 64 66 64C67.1046 64 68 64.8954 68 66Z" fill="#18191F"/>
</svg>
